<?xml version="1.0" encoding="UTF-8"?>
<!DOCTYPE svg PUBLIC "-//W3C//DTD SVG 1.1//EN" "http://www.w3.org/Graphics/SVG/1.1/DTD/svg11.dtd">
<svg xmlns="http://www.w3.org/2000/svg" version="1.1" width="593px" height="421px" style="shape-rendering:geometricPrecision; text-rendering:geometricPrecision; image-rendering:optimizeQuality; fill-rule:evenodd; clip-rule:evenodd" xmlns:xlink="http://www.w3.org/1999/xlink">
<g><path style="opacity:0.346" fill="#b6bcbd" d="M 531.5,92.5 C 427.167,92.5 322.833,92.5 218.5,92.5C 218.918,91.7784 219.584,91.2784 220.5,91C 259,90.8333 297.5,90.6667 336,90.5C 400.877,90.8949 465.71,91.0616 530.5,91C 531.056,91.3826 531.389,91.8826 531.5,92.5 Z"/></g>
<g><path style="opacity:0.955" fill="#5d797f" d="M 218.5,93.5 C 218.5,93.1667 218.5,92.8333 218.5,92.5C 322.833,92.5 427.167,92.5 531.5,92.5C 531.5,93.5 531.5,94.5 531.5,95.5C 531.167,95.5 530.833,95.5 530.5,95.5C 479.671,94.1667 428.504,93.5001 377,93.5C 325.833,93.6667 274.667,93.8333 223.5,94C 325.334,94.1669 427.001,94.6669 528.5,95.5C 426.167,95.5 323.833,95.5 221.5,95.5C 221.5,98.1667 221.5,100.833 221.5,103.5C 221.5,139.833 221.5,176.167 221.5,212.5C 221.167,212.5 220.833,212.5 220.5,212.5C 220.5,196.167 220.5,179.833 220.5,163.5C 221.157,139.809 220.49,116.476 218.5,93.5 Z"/></g>
<g><path style="opacity:1" fill="#375559" d="M 530.5,95.5 C 530.167,95.5 529.833,95.5 529.5,95.5C 529.167,95.5 528.833,95.5 528.5,95.5C 427.001,94.6669 325.334,94.1669 223.5,94C 274.667,93.8333 325.833,93.6667 377,93.5C 428.504,93.5001 479.671,94.1667 530.5,95.5 Z"/></g>
<g><path style="opacity:1" fill="#9cd1d7" d="M 528.5,95.5 C 528.833,95.5 529.167,95.5 529.5,95.5C 529.5,97.8333 529.5,100.167 529.5,102.5C 529.167,102.5 528.833,102.5 528.5,102.5C 528.5,102.167 528.5,101.833 528.5,101.5C 528.5,99.8333 528.5,98.1667 528.5,96.5C 426.5,96.5 324.5,96.5 222.5,96.5C 222.5,98.5 222.5,100.5 222.5,102.5C 222.5,103.167 222.167,103.5 221.5,103.5C 221.5,100.833 221.5,98.1667 221.5,95.5C 323.833,95.5 426.167,95.5 528.5,95.5 Z"/></g>
<g><path style="opacity:1" fill="#a9eaf7" d="M 528.5,101.5 C 527.5,101.5 526.5,101.5 525.5,101.5C 525.586,100.504 525.252,99.6708 524.5,99C 424.5,98.3333 324.5,98.3333 224.5,99C 223.663,100.011 223.33,101.178 223.5,102.5C 223.167,102.5 222.833,102.5 222.5,102.5C 222.5,100.5 222.5,98.5 222.5,96.5C 324.5,96.5 426.5,96.5 528.5,96.5C 528.5,98.1667 528.5,99.8333 528.5,101.5 Z"/></g>
<g><path style="opacity:1" fill="#9ae7fc" d="M 525.5,101.5 C 424.999,101.167 324.665,101.501 224.5,102.5C 224.167,102.5 223.833,102.5 223.5,102.5C 223.33,101.178 223.663,100.011 224.5,99C 324.5,98.3333 424.5,98.3333 524.5,99C 525.252,99.6708 525.586,100.504 525.5,101.5 Z"/></g>
<g><path style="opacity:1" fill="#87dffa" d="M 224.5,102.5 C 324.665,101.501 424.999,101.167 525.5,101.5C 526.5,101.5 527.5,101.5 528.5,101.5C 528.5,101.833 528.5,102.167 528.5,102.5C 528.5,102.833 528.5,103.167 528.5,103.5C 527.5,103.5 526.5,103.5 525.5,103.5C 425.335,102.501 325.001,102.167 224.5,102.5 Z"/></g>
<g><path style="opacity:1" fill="#73cef1" d="M 222.5,102.5 C 222.833,102.5 223.167,102.5 223.5,102.5C 223.833,102.5 224.167,102.5 224.5,102.5C 325.001,102.167 425.335,102.501 525.5,103.5C 424.833,103.5 324.167,103.5 223.5,103.5C 223.5,139.167 223.5,174.833 223.5,210.5C 223.5,210.833 223.5,211.167 223.5,211.5C 222.833,211.833 222.167,212.167 221.5,212.5C 221.5,176.167 221.5,139.833 221.5,103.5C 222.167,103.5 222.5,103.167 222.5,102.5 Z"/></g>
<g><path style="opacity:1" fill="#65c7f5" d="M 525.5,103.5 C 526.5,103.5 527.5,103.5 528.5,103.5C 528.5,114.5 528.5,125.5 528.5,136.5C 527.883,136.611 527.383,136.944 527,137.5C 526.5,126.505 526.333,115.505 526.5,104.5C 425.833,104.5 325.167,104.5 224.5,104.5C 224.5,105.5 224.5,106.5 224.5,107.5C 225.833,113.167 225.833,118.833 224.5,124.5C 224.831,153.338 224.498,182.005 223.5,210.5C 223.5,174.833 223.5,139.167 223.5,103.5C 324.167,103.5 424.833,103.5 525.5,103.5 Z"/></g>
<g><path style="opacity:0.125" fill="#c3c4c4" d="M 117.5,105.5 C 143.997,104.336 170.664,104.17 197.5,105C 203.922,105.448 207.255,108.948 207.5,115.5C 207.167,115.5 206.833,115.5 206.5,115.5C 204.72,114.01 204.054,112.01 204.5,109.5C 203.571,108.685 202.571,107.852 201.5,107C 197.514,106.501 193.514,106.334 189.5,106.5C 189.167,106.5 188.833,106.5 188.5,106.5C 165.006,105.502 141.339,105.169 117.5,105.5 Z"/></g>
<g><path style="opacity:0.659" fill="#6a6a6a" d="M 117.5,105.5 C 141.339,105.169 165.006,105.502 188.5,106.5C 165.157,106.167 141.824,106.5 118.5,107.5C 118.957,108.298 119.624,108.631 120.5,108.5C 120.5,108.833 120.5,109.167 120.5,109.5C 119.391,109.557 118.391,109.89 117.5,110.5C 117.5,109.833 117.5,109.167 117.5,108.5C 117.5,107.5 117.5,106.5 117.5,105.5 Z"/></g>
<g><path style="opacity:1" fill="#5dc2fd" d="M 224.5,124.5 C 225.833,118.833 225.833,113.167 224.5,107.5C 324.622,105.506 424.955,104.839 525.5,105.5C 525.979,109.911 525.312,114.078 523.5,118C 524,118.5 524.5,119 525,119.5C 526.312,149.064 526.479,178.564 525.5,208C 429.167,208.5 332.834,208.667 236.5,208.5C 237.263,204.862 235.93,203.362 232.5,204C 233.668,205.406 233.335,206.572 231.5,207.5C 229.647,208.76 227.814,208.76 226,207.5C 225.832,179.664 225.332,151.997 224.5,124.5 Z"/></g>
<g><path style="opacity:1" fill="#2a3536" d="M 188.5,106.5 C 188.833,106.5 189.167,106.5 189.5,106.5C 182.576,108.463 175.243,109.13 167.5,108.5C 151.833,108.5 136.167,108.5 120.5,108.5C 119.624,108.631 118.957,108.298 118.5,107.5C 141.824,106.5 165.157,106.167 188.5,106.5 Z"/></g>
<g><path style="opacity:1" fill="#7ea6ac" d="M 120.5,109.5 C 120.5,109.167 120.5,108.833 120.5,108.5C 136.167,108.5 151.833,108.5 167.5,108.5C 172.167,109.167 176.833,109.833 181.5,110.5C 161.173,109.876 140.839,109.543 120.5,109.5 Z"/></g>
<g><path style="opacity:1" fill="#5d7070" d="M 189.5,106.5 C 193.514,106.334 197.514,106.501 201.5,107C 202.571,107.852 203.571,108.685 204.5,109.5C 203.167,109.5 202.5,110.167 202.5,111.5C 202.167,111.5 201.833,111.5 201.5,111.5C 195.021,110.509 188.354,110.176 181.5,110.5C 176.833,109.833 172.167,109.167 167.5,108.5C 175.243,109.13 182.576,108.463 189.5,106.5 Z"/></g>
<g><path style="opacity:1" fill="#4f5b5f" d="M 117.5,108.5 C 117.5,109.167 117.5,109.833 117.5,110.5C 116.508,110.328 115.842,110.662 115.5,111.5C 110.546,113.456 106.879,116.789 104.5,121.5C 104.5,120.167 103.833,119.5 102.5,119.5C 105.582,113.068 110.582,109.401 117.5,108.5 Z"/></g>
<g><path style="opacity:1" fill="#98e0eb" d="M 120.5,109.5 C 140.839,109.543 161.173,109.876 181.5,110.5C 188.354,110.176 195.021,110.509 201.5,111.5C 201.5,112.167 201.5,112.833 201.5,113.5C 173.795,112.492 146.129,112.492 118.5,113.5C 117.127,113.657 115.793,113.49 114.5,113C 115.056,112.617 115.389,112.117 115.5,111.5C 115.842,110.662 116.508,110.328 117.5,110.5C 118.391,109.89 119.391,109.557 120.5,109.5 Z"/></g>
<g><path style="opacity:0.675" fill="#9ca2a5" d="M 531.5,92.5 C 533.199,103.959 534.199,115.626 534.5,127.5C 534.167,127.5 533.833,127.5 533.5,127.5C 533.5,126.167 533.5,124.833 533.5,123.5C 531.649,114.305 530.983,104.971 531.5,95.5C 531.5,94.5 531.5,93.5 531.5,92.5 Z"/></g>
<g><path style="opacity:1" fill="#3cbefb" d="M 118.5,114.5 C 145.833,114.5 173.167,114.5 200.5,114.5C 202.717,148.188 203.05,181.854 201.5,215.5C 198.534,215.89 195.868,215.223 193.5,213.5C 192.692,213.808 192.025,214.308 191.5,215C 176.994,215.169 162.661,215.669 148.5,216.5C 145.07,217.854 141.903,219.854 139,222.5C 137.933,226.303 136.1,229.637 133.5,232.5C 131.852,233.777 130.018,234.777 128,235.5C 127.667,237.167 127.333,238.833 127,240.5C 124.393,243.22 122.56,246.386 121.5,250C 118.735,251.129 116.235,252.629 114,254.5C 111.88,253.541 109.713,253.374 107.5,254C 108.993,255.156 108.826,255.99 107,256.5C 100.871,255.727 94.7039,255.227 88.5,255C 89.772,252.956 89.4386,251.122 87.5,249.5C 88.1667,248.5 88.8333,247.5 89.5,246.5C 86.6255,241.743 82.2922,239.409 76.5,239.5C 76.5,238.167 76.5,236.833 76.5,235.5C 78.1992,235.66 79.8659,235.494 81.5,235C 81.1667,234.667 80.8333,234.333 80.5,234C 83.4471,233.888 84.7804,232.388 84.5,229.5C 84.5,228.833 84.5,228.167 84.5,227.5C 85.5,228.167 86.5,228.833 87.5,229.5C 87.56,230.043 87.8933,230.376 88.5,230.5C 89.1975,223.043 90.0308,215.71 91,208.5C 90,207.5 89,206.5 88,205.5C 85.451,208.006 82.951,207.84 80.5,205C 78.5273,204.505 76.5273,204.338 74.5,204.5C 74.3354,201.482 74.502,198.482 75,195.5C 78.7324,189.023 80.8991,182.023 81.5,174.5C 83.1449,180.594 84.4782,186.927 85.5,193.5C 93.1739,193.666 100.841,193.5 108.5,193C 111.598,191.444 114.598,189.944 117.5,188.5C 117.833,188.5 118.167,188.5 118.5,188.5C 125.034,188.696 131.034,187.196 136.5,184C 138.833,183.667 141.167,183.333 143.5,183C 146.002,179.837 149.002,177.337 152.5,175.5C 152.833,175.5 153.167,175.5 153.5,175.5C 160.34,174.897 167.007,173.73 173.5,172C 177.328,169.66 180.995,167.16 184.5,164.5C 183.47,159.421 183.636,154.421 185,149.5C 185.667,141.167 185.667,132.833 185,124.5C 184.837,122.324 184.004,120.491 182.5,119C 160.822,118.391 139.155,118.724 117.5,120C 115.317,121.694 112.984,121.861 110.5,120.5C 111.748,116.582 114.415,114.582 118.5,114.5 Z"/></g>
<g><path style="opacity:0.231" fill="#bfbfbf" d="M 117.5,105.5 C 117.5,106.5 117.5,107.5 117.5,108.5C 110.582,109.401 105.582,113.068 102.5,119.5C 102.167,119.5 101.833,119.5 101.5,119.5C 104.665,112.334 109.998,107.667 117.5,105.5 Z"/></g>
<g><path style="opacity:1" fill="#33687d" d="M 204.5,109.5 C 204.054,112.01 204.72,114.01 206.5,115.5C 205.508,147.427 205.174,179.427 205.5,211.5C 205.5,213.167 205.5,214.833 205.5,216.5C 205.167,216.5 204.833,216.5 204.5,216.5C 204.667,183.832 204.5,151.165 204,118.5C 203.023,116.26 202.523,113.927 202.5,111.5C 202.5,110.167 203.167,109.5 204.5,109.5 Z"/></g>
<g><path style="opacity:1" fill="#4dbae6" d="M 115.5,111.5 C 115.389,112.117 115.056,112.617 114.5,113C 115.793,113.49 117.127,113.657 118.5,113.5C 118.5,113.833 118.5,114.167 118.5,114.5C 114.415,114.582 111.748,116.582 110.5,120.5C 112.984,121.861 115.317,121.694 117.5,120C 139.155,118.724 160.822,118.391 182.5,119C 184.004,120.491 184.837,122.324 185,124.5C 185.667,132.833 185.667,141.167 185,149.5C 183.636,154.421 183.47,159.421 184.5,164.5C 180.995,167.16 177.328,169.66 173.5,172C 167.007,173.73 160.34,174.897 153.5,175.5C 158.133,173.165 162.799,170.832 167.5,168.5C 169.558,167.067 171.892,166.4 174.5,166.5C 179.938,166.058 182.605,163.058 182.5,157.5C 183.861,150.585 184.527,143.585 184.5,136.5C 184.499,132.651 184.165,128.984 183.5,125.5C 182.145,122.482 179.812,121.149 176.5,121.5C 158.317,120.227 139.984,120.227 121.5,121.5C 116.985,122.563 112.651,124.229 108.5,126.5C 106.395,128.592 104.728,130.925 103.5,133.5C 103.5,133.833 103.5,134.167 103.5,134.5C 102.141,135.007 101.141,136.007 100.5,137.5C 100.08,135.674 100.08,133.674 100.5,131.5C 101.298,127.911 102.631,124.578 104.5,121.5C 106.879,116.789 110.546,113.456 115.5,111.5 Z"/></g>
<g><path style="opacity:1" fill="#557d8c" d="M 529.5,95.5 C 529.833,95.5 530.167,95.5 530.5,95.5C 530.833,95.5 531.167,95.5 531.5,95.5C 530.983,104.971 531.649,114.305 533.5,123.5C 532.883,123.389 532.383,123.056 532,122.5C 531.5,132.494 531.334,142.494 531.5,152.5C 531.167,152.5 530.833,152.5 530.5,152.5C 529.814,135.842 529.481,119.176 529.5,102.5C 529.5,100.167 529.5,97.8333 529.5,95.5 Z"/></g>
<g><path style="opacity:1" fill="#2e708d" d="M 176.5,121.5 C 158.169,121.944 139.836,122.278 121.5,122.5C 121.5,122.167 121.5,121.833 121.5,121.5C 139.984,120.227 158.317,120.227 176.5,121.5 Z"/></g>
<g><path style="opacity:0.318" fill="#c3c3c3" d="M 101.5,119.5 C 99.425,125.311 97.0917,130.978 94.5,136.5C 93.5,137.167 92.5,137.833 91.5,138.5C 94.0839,131.729 97.4172,125.395 101.5,119.5 Z"/></g>
<g><path style="opacity:1" fill="#5dc6fa" d="M 528.5,136.5 C 528.5,141.833 528.5,147.167 528.5,152.5C 528.5,172.167 528.5,191.833 528.5,211.5C 426.833,211.5 325.167,211.5 223.5,211.5C 223.5,211.167 223.5,210.833 223.5,210.5C 224.498,182.005 224.831,153.338 224.5,124.5C 225.332,151.997 225.832,179.664 226,207.5C 227.814,208.76 229.647,208.76 231.5,207.5C 233.335,206.572 233.668,205.406 232.5,204C 235.93,203.362 237.263,204.862 236.5,208.5C 332.834,208.667 429.167,208.5 525.5,208C 526.479,178.564 526.312,149.064 525,119.5C 524.5,119 524,118.5 523.5,118C 525.312,114.078 525.979,109.911 525.5,105.5C 424.955,104.839 324.622,105.506 224.5,107.5C 224.5,106.5 224.5,105.5 224.5,104.5C 325.167,104.5 425.833,104.5 526.5,104.5C 526.333,115.505 526.5,126.505 527,137.5C 527.383,136.944 527.883,136.611 528.5,136.5 Z"/></g>
<g><path style="opacity:1" fill="#3a88a4" d="M 121.5,121.5 C 121.5,121.833 121.5,122.167 121.5,122.5C 120.005,122.989 118.671,123.655 117.5,124.5C 115.099,125.049 112.765,125.882 110.5,127C 108.297,129.372 105.963,131.539 103.5,133.5C 104.728,130.925 106.395,128.592 108.5,126.5C 112.651,124.229 116.985,122.563 121.5,121.5 Z"/></g>
<g><path style="opacity:1" fill="#7c7c7c" d="M 178.5,127.5 C 158.164,127.333 137.831,127.5 117.5,128C 114.855,129.044 112.522,130.544 110.5,132.5C 111.055,130.271 112.389,128.605 114.5,127.5C 118.445,126.509 122.445,126.176 126.5,126.5C 143.499,125.881 160.499,125.714 177.5,126C 178.056,126.383 178.389,126.883 178.5,127.5 Z"/></g>
<g><path style="opacity:1" fill="#8b8b8b" d="M 178.5,127.5 C 179.765,128.514 180.431,130.014 180.5,132C 180.845,135.474 179.679,138.307 177,140.5C 169.246,139.353 161.413,139.186 153.5,140C 144.874,141.618 136.208,143.285 127.5,145C 119.4,145.172 111.4,146.005 103.5,147.5C 103.517,145.435 103.85,143.435 104.5,141.5C 106.136,138.266 108.136,135.266 110.5,132.5C 112.522,130.544 114.855,129.044 117.5,128C 137.831,127.5 158.164,127.333 178.5,127.5 Z"/></g>
<g><path style="opacity:1" fill="#1d3444" d="M 176.5,121.5 C 179.812,121.149 182.145,122.482 183.5,125.5C 183.575,136.227 182.908,146.894 181.5,157.5C 180.065,158.913 179.065,160.58 178.5,162.5C 179.851,158.538 180.518,154.371 180.5,150C 180.333,147.833 180.167,145.667 180,143.5C 179.617,144.056 179.117,144.389 178.5,144.5C 180.63,140.868 181.63,136.868 181.5,132.5C 181.596,129.434 180.596,126.934 178.5,125C 164.504,124.5 150.504,124.333 136.5,124.5C 130.201,123.65 123.868,123.65 117.5,124.5C 118.671,123.655 120.005,122.989 121.5,122.5C 139.836,122.278 158.169,121.944 176.5,121.5 Z"/></g>
<g><path style="opacity:1" fill="#5acbf6" d="M 201.5,113.5 C 202.749,131.436 203.416,149.436 203.5,167.5C 203.499,183.848 202.833,199.848 201.5,215.5C 203.05,181.854 202.717,148.188 200.5,114.5C 173.167,114.5 145.833,114.5 118.5,114.5C 118.5,114.167 118.5,113.833 118.5,113.5C 146.129,112.492 173.795,112.492 201.5,113.5 Z"/></g>
<g><path style="opacity:1" fill="#354e59" d="M 101.5,119.5 C 101.833,119.5 102.167,119.5 102.5,119.5C 103.833,119.5 104.5,120.167 104.5,121.5C 102.631,124.578 101.298,127.911 100.5,131.5C 97.8352,135.817 95.1685,140.151 92.5,144.5C 92.2872,141.549 92.9539,138.882 94.5,136.5C 97.0917,130.978 99.425,125.311 101.5,119.5 Z"/></g>
<g><path style="opacity:1" fill="#1a2225" d="M 218.5,93.5 C 220.49,116.476 221.157,139.809 220.5,163.5C 219.833,163.5 219.167,163.5 218.5,163.5C 218.5,140.167 218.5,116.833 218.5,93.5 Z"/></g>
<g><path style="opacity:1" fill="#075c9e" d="M 358.5,138.5 C 373.343,138.171 388.01,138.504 402.5,139.5C 402.5,140.833 402.5,142.167 402.5,143.5C 397.833,143.5 393.167,143.5 388.5,143.5C 388.5,145.5 388.5,147.5 388.5,149.5C 392.226,149.177 395.893,149.511 399.5,150.5C 398.754,151.736 398.421,153.07 398.5,154.5C 394.167,154.5 389.833,154.5 385.5,154.5C 385.007,156.806 384.674,159.139 384.5,161.5C 389.214,161.827 393.88,161.493 398.5,160.5C 401.23,153.364 403.397,146.03 405,138.5C 408.394,137.544 411.894,137.211 415.5,137.5C 416.169,142.847 417.002,148.18 418,153.5C 419.512,148.618 420.845,143.618 422,138.5C 424.719,137.556 427.552,137.223 430.5,137.5C 427.974,146.174 425.807,154.841 424,163.5C 428.79,154.75 433.957,146.25 439.5,138C 443.152,137.501 446.818,137.335 450.5,137.5C 450.334,146.173 450.5,154.84 451,163.5C 454.039,155.326 456.706,146.993 459,138.5C 461.719,137.556 464.552,137.223 467.5,137.5C 465.5,145.5 463.5,153.5 461.5,161.5C 465.167,161.5 468.833,161.5 472.5,161.5C 472.579,162.93 472.246,164.264 471.5,165.5C 461.522,166.499 451.522,166.832 441.5,166.5C 441.5,164.833 441.5,163.167 441.5,161.5C 438.813,161.336 436.146,161.503 433.5,162C 432.707,163.085 432.04,164.252 431.5,165.5C 425.202,166.496 418.868,166.83 412.5,166.5C 411.213,146.758 408.879,146.758 405.5,166.5C 395.167,166.5 384.833,166.5 374.5,166.5C 376.294,158.862 377.961,151.195 379.5,143.5C 377.208,143.244 375.041,143.577 373,144.5C 370.644,151.782 368.477,159.115 366.5,166.5C 363.482,166.665 360.482,166.498 357.5,166C 359.73,158.579 361.73,151.079 363.5,143.5C 358.889,144.485 354.222,145.152 349.5,145.5C 349.915,143.052 348.915,141.719 346.5,141.5C 342.278,142.661 341.612,144.828 344.5,148C 357.542,153.926 357.542,160.259 344.5,167C 339.075,168.225 334.075,167.391 329.5,164.5C 326.788,166.26 323.788,166.927 320.5,166.5C 320.5,164.833 320.5,163.167 320.5,161.5C 317.482,161.335 314.482,161.502 311.5,162C 309.055,166.12 305.389,167.453 300.5,166C 303.5,161 306.5,156 309.5,151C 304.167,150.333 298.833,150.333 293.5,151C 291.725,156.039 290.391,161.206 289.5,166.5C 285.154,166.666 280.821,166.499 276.5,166C 280.747,153.66 284.581,141.16 288,128.5C 297.75,127.514 307.584,127.181 317.5,127.5C 317.335,129.827 316.669,131.993 315.5,134C 309.833,134.333 304.167,134.667 298.5,135C 297.446,137.382 296.779,139.882 296.5,142.5C 301.5,142.5 306.5,142.5 311.5,142.5C 311.343,143.873 311.51,145.207 312,146.5C 313.709,143.582 315.542,140.748 317.5,138C 321.152,137.501 324.818,137.335 328.5,137.5C 328.5,144.167 328.5,150.833 328.5,157.5C 331.5,157.5 334.5,157.5 337.5,157.5C 337.083,162.068 339.083,163.568 343.5,162C 346.167,160 346.167,158 343.5,156C 331.475,151.562 330.475,145.562 340.5,138C 346.17,137.025 351.67,137.525 357,139.5C 357.765,139.43 358.265,139.097 358.5,138.5 Z"/></g>
<g><path style="opacity:1" fill="#2575b0" d="M 358.5,138.5 C 373.339,137.174 388.339,137.174 403.5,138.5C 403.376,139.107 403.043,139.44 402.5,139.5C 388.01,138.504 373.343,138.171 358.5,138.5 Z"/></g>
<g><path style="opacity:0.118" fill="#d7d7d7" d="M 91.5,138.5 C 91.539,141.089 90.539,143.089 88.5,144.5C 88.9925,142.181 89.9925,140.181 91.5,138.5 Z"/></g>
<g><path style="opacity:1" fill="#5f5f60" d="M 136.5,124.5 C 150.504,124.333 164.504,124.5 178.5,125C 180.596,126.934 181.596,129.434 181.5,132.5C 181.63,136.868 180.63,140.868 178.5,144.5C 179.01,150.072 178.177,155.405 176,160.5C 167.483,164.004 158.983,167.504 150.5,171C 145.272,171.259 140.606,172.926 136.5,176C 126.377,178.242 116.377,180.908 106.5,184C 101.5,184.667 96.5,184.667 91.5,184C 90.9781,183.439 90.6448,182.772 90.5,182C 94.6684,169.832 98.3351,157.499 101.5,145C 101.715,143.092 102.715,141.926 104.5,141.5C 103.85,143.435 103.517,145.435 103.5,147.5C 111.4,146.005 119.4,145.172 127.5,145C 136.208,143.285 144.874,141.618 153.5,140C 161.413,139.186 169.246,139.353 177,140.5C 179.679,138.307 180.845,135.474 180.5,132C 180.431,130.014 179.765,128.514 178.5,127.5C 178.389,126.883 178.056,126.383 177.5,126C 160.499,125.714 143.499,125.881 126.5,126.5C 129.833,125.833 133.167,125.167 136.5,124.5 Z"/></g>
<g><path style="opacity:1" fill="#6c7579" d="M 94.5,136.5 C 92.9539,138.882 92.2872,141.549 92.5,144.5C 92.5,145.167 92.1667,145.5 91.5,145.5C 90.2223,145.782 89.2223,146.449 88.5,147.5C 88.5,146.833 88.5,146.167 88.5,145.5C 88.5,145.167 88.5,144.833 88.5,144.5C 90.539,143.089 91.539,141.089 91.5,138.5C 92.5,137.833 93.5,137.167 94.5,136.5 Z"/></g>
<g><path style="opacity:1" fill="#2f7c9c" d="M 183.5,125.5 C 184.165,128.984 184.499,132.651 184.5,136.5C 184.527,143.585 183.861,150.585 182.5,157.5C 182.167,157.5 181.833,157.5 181.5,157.5C 182.908,146.894 183.575,136.227 183.5,125.5 Z"/></g>
<g><path style="opacity:1" fill="#53b0d2" d="M 528.5,102.5 C 528.833,102.5 529.167,102.5 529.5,102.5C 529.481,119.176 529.814,135.842 530.5,152.5C 529.833,152.5 529.167,152.5 528.5,152.5C 528.5,147.167 528.5,141.833 528.5,136.5C 528.5,125.5 528.5,114.5 528.5,103.5C 528.5,103.167 528.5,102.833 528.5,102.5 Z"/></g>
<g><path style="opacity:1" fill="#60bbf1" d="M 442.5,143.5 C 442.745,147.61 442.745,151.944 442.5,156.5C 440.833,156.5 439.167,156.5 437.5,156.5C 438.321,151.856 439.987,147.523 442.5,143.5 Z"/></g>
<g><path style="opacity:1" fill="#3f97b3" d="M 100.5,131.5 C 100.08,133.674 100.08,135.674 100.5,137.5C 101.141,136.007 102.141,135.007 103.5,134.5C 103.274,138.1 101.608,140.766 98.5,142.5C 98.6567,141.127 98.49,139.793 98,138.5C 97.6924,139.308 97.1924,139.975 96.5,140.5C 93.6584,145.218 91.4918,150.218 90,155.5C 88.147,157.903 86.3137,160.236 84.5,162.5C 86.8772,156.81 89.2106,151.144 91.5,145.5C 92.1667,145.5 92.5,145.167 92.5,144.5C 95.1685,140.151 97.8352,135.817 100.5,131.5 Z"/></g>
<g><path style="opacity:1" fill="#5ebaf1" d="M 320.5,143.5 C 321.124,147.648 321.124,151.982 320.5,156.5C 318.396,156.799 316.396,156.466 314.5,155.5C 316.513,151.473 318.513,147.473 320.5,143.5 Z"/></g>
<g><path style="opacity:1" fill="#4db7dd" d="M 201.5,111.5 C 201.833,111.5 202.167,111.5 202.5,111.5C 202.523,113.927 203.023,116.26 204,118.5C 204.5,151.165 204.667,183.832 204.5,216.5C 203.5,216.5 202.5,216.5 201.5,216.5C 201.5,216.167 201.5,215.833 201.5,215.5C 202.833,199.848 203.499,183.848 203.5,167.5C 203.416,149.436 202.749,131.436 201.5,113.5C 201.5,112.833 201.5,112.167 201.5,111.5 Z"/></g>
<g><path style="opacity:0.996" fill="#233f4f" d="M 206.5,115.5 C 206.833,115.5 207.167,115.5 207.5,115.5C 207.5,142.167 207.5,168.833 207.5,195.5C 207.5,200.833 207.5,206.167 207.5,211.5C 206.833,211.5 206.167,211.5 205.5,211.5C 205.174,179.427 205.508,147.427 206.5,115.5 Z"/></g>
<g><path style="opacity:0.969" fill="#9da0a0" d="M 88.5,145.5 C 88.5,146.167 88.5,146.833 88.5,147.5C 87.1734,150.17 85.6734,152.836 84,155.5C 82.8695,158.445 82.0362,161.445 81.5,164.5C 80.5,164.5 79.5,164.5 78.5,164.5C 80.7147,157.478 84.048,151.145 88.5,145.5 Z"/></g>
<g><path style="opacity:1" fill="#3a9abc" d="M 96.5,151.5 C 94.8906,155.055 93.5573,158.722 92.5,162.5C 91.8333,163.5 91.1667,164.5 90.5,165.5C 90.2388,159.792 92.2388,155.126 96.5,151.5 Z"/></g>
<g><path style="opacity:0.148" fill="#878888" d="M 533.5,127.5 C 533.833,127.5 534.167,127.5 534.5,127.5C 534.667,158.835 534.5,190.168 534,221.5C 533.777,223.881 532.61,225.547 530.5,226.5C 531.783,224.394 532.616,222.06 533,219.5C 533.5,188.835 533.667,158.168 533.5,127.5 Z"/></g>
<g><path style="opacity:1" fill="#47b9e4" d="M 98.5,142.5 C 97.8333,145.5 97.1667,148.5 96.5,151.5C 92.2388,155.126 90.2388,159.792 90.5,165.5C 89.2257,169.059 88.2257,172.726 87.5,176.5C 86.8182,177.243 86.1515,177.909 85.5,178.5C 85.4878,174.381 86.4878,170.548 88.5,167C 87.646,165.978 86.646,165.145 85.5,164.5C 84.3875,166.419 83.0542,168.086 81.5,169.5C 81.1824,166.519 82.1824,164.185 84.5,162.5C 86.3137,160.236 88.147,157.903 90,155.5C 91.4918,150.218 93.6584,145.218 96.5,140.5C 97.1924,139.975 97.6924,139.308 98,138.5C 98.49,139.793 98.6567,141.127 98.5,142.5 Z"/></g>
<g><path style="opacity:1" fill="#45a9ce" d="M 181.5,157.5 C 181.833,157.5 182.167,157.5 182.5,157.5C 182.605,163.058 179.938,166.058 174.5,166.5C 176.297,165.607 177.63,164.274 178.5,162.5C 179.065,160.58 180.065,158.913 181.5,157.5 Z"/></g>
<g><path style="opacity:1" fill="#1d4352" d="M 178.5,162.5 C 177.63,164.274 176.297,165.607 174.5,166.5C 171.892,166.4 169.558,167.067 167.5,168.5C 167.5,167.5 167.5,166.5 167.5,165.5C 171.403,165.309 175.07,164.309 178.5,162.5 Z"/></g>
<g><path style="opacity:1" fill="#6dcaf3" d="M 528.5,152.5 C 529.167,152.5 529.833,152.5 530.5,152.5C 530.667,171.836 530.5,191.17 530,210.5C 529.617,211.056 529.117,211.389 528.5,211.5C 528.5,191.833 528.5,172.167 528.5,152.5 Z"/></g>
<g><path style="opacity:1" fill="#5e9fba" d="M 530.5,152.5 C 530.833,152.5 531.167,152.5 531.5,152.5C 531.5,172.167 531.5,191.833 531.5,211.5C 530.778,212.551 529.778,213.218 528.5,213.5C 528.5,212.833 528.5,212.167 528.5,211.5C 529.117,211.389 529.617,211.056 530,210.5C 530.5,191.17 530.667,171.836 530.5,152.5 Z"/></g>
<g><path style="opacity:0.765" fill="#a8abab" d="M 78.5,164.5 C 79.0749,169.238 77.4083,172.905 73.5,175.5C 74.6105,171.468 76.2771,167.802 78.5,164.5 Z"/></g>
<g><path style="opacity:1" fill="#316d84" d="M 92.5,162.5 C 90.7716,170.07 88.7716,177.404 86.5,184.5C 85.5386,182.735 85.2053,180.735 85.5,178.5C 86.1515,177.909 86.8182,177.243 87.5,176.5C 88.2257,172.726 89.2257,169.059 90.5,165.5C 91.1667,164.5 91.8333,163.5 92.5,162.5 Z"/></g>
<g><path style="opacity:1" fill="#4bc6f9" d="M 85.5,178.5 C 85.2053,180.735 85.5386,182.735 86.5,184.5C 87.2026,186.716 88.5359,188.549 90.5,190C 94.3575,190.81 98.0242,190.643 101.5,189.5C 106.797,188.725 112.13,188.392 117.5,188.5C 114.598,189.944 111.598,191.444 108.5,193C 100.841,193.5 93.1739,193.666 85.5,193.5C 84.4782,186.927 83.1449,180.594 81.5,174.5C 81.5,172.833 81.5,171.167 81.5,169.5C 83.0542,168.086 84.3875,166.419 85.5,164.5C 86.646,165.145 87.646,165.978 88.5,167C 86.4878,170.548 85.4878,174.381 85.5,178.5 Z"/></g>
<g><path style="opacity:1" fill="#336f87" d="M 167.5,168.5 C 162.799,170.832 158.133,173.165 153.5,175.5C 153.167,175.5 152.833,175.5 152.5,175.5C 149.598,176.578 146.598,177.244 143.5,177.5C 151.101,173.46 159.101,170.46 167.5,168.5 Z"/></g>
<g><path style="opacity:1" fill="#166aaa" d="M 276.5,176.5 C 277.765,177.514 278.431,179.014 278.5,181C 278.167,182.5 277.833,184 277.5,185.5C 276.516,182.572 276.183,179.572 276.5,176.5 Z"/></g>
<g><path style="opacity:1" fill="#212a2f" d="M 136.5,124.5 C 133.167,125.167 129.833,125.833 126.5,126.5C 122.445,126.176 118.445,126.509 114.5,127.5C 112.389,128.605 111.055,130.271 110.5,132.5C 108.136,135.266 106.136,138.266 104.5,141.5C 102.715,141.926 101.715,143.092 101.5,145C 98.3351,157.499 94.6684,169.832 90.5,182C 90.6448,182.772 90.9781,183.439 91.5,184C 96.5,184.667 101.5,184.667 106.5,184C 116.377,180.908 126.377,178.242 136.5,176C 140.606,172.926 145.272,171.259 150.5,171C 158.983,167.504 167.483,164.004 176,160.5C 178.177,155.405 179.01,150.072 178.5,144.5C 179.117,144.389 179.617,144.056 180,143.5C 180.167,145.667 180.333,147.833 180.5,150C 180.518,154.371 179.851,158.538 178.5,162.5C 175.07,164.309 171.403,165.309 167.5,165.5C 167.5,166.5 167.5,167.5 167.5,168.5C 159.101,170.46 151.101,173.46 143.5,177.5C 136.626,179.205 129.626,180.705 122.5,182C 121.944,182.383 121.611,182.883 121.5,183.5C 119.901,183.232 118.568,183.566 117.5,184.5C 108.606,186.279 99.6059,187.279 90.5,187.5C 89.1667,186.5 87.8333,185.5 86.5,184.5C 88.7716,177.404 90.7716,170.07 92.5,162.5C 93.5573,158.722 94.8906,155.055 96.5,151.5C 97.1667,148.5 97.8333,145.5 98.5,142.5C 101.608,140.766 103.274,138.1 103.5,134.5C 103.5,134.167 103.5,133.833 103.5,133.5C 105.963,131.539 108.297,129.372 110.5,127C 112.765,125.882 115.099,125.049 117.5,124.5C 123.868,123.65 130.201,123.65 136.5,124.5 Z"/></g>
<g><path style="opacity:1" fill="#44a0c4" d="M 81.5,169.5 C 81.5,171.167 81.5,172.833 81.5,174.5C 80.0149,178.336 77.6815,181.67 74.5,184.5C 76.4358,179.256 78.7691,174.256 81.5,169.5 Z"/></g>
<g><path style="opacity:1" fill="#1e6dac" d="M 283.5,178.5 C 284.725,179.152 285.392,180.319 285.5,182C 285.167,183.167 284.833,184.333 284.5,185.5C 283.526,183.257 283.192,180.924 283.5,178.5 Z"/></g>
<g><path style="opacity:1" fill="#2977b4" d="M 412.5,178.5 C 414.5,178.5 416.5,178.5 418.5,178.5C 418.808,180.924 418.474,183.257 417.5,185.5C 416.167,178.833 414.833,178.833 413.5,185.5C 412.526,183.257 412.192,180.924 412.5,178.5 Z"/></g>
<g><path style="opacity:1" fill="#3681bb" d="M 456.5,176.5 C 457.765,177.514 458.431,179.014 458.5,181C 458.167,182.5 457.833,184 457.5,185.5C 456.516,182.572 456.183,179.572 456.5,176.5 Z"/></g>
<g><path style="opacity:0.357" fill="#b9baba" d="M 73.5,175.5 C 73.8337,178.491 72.8337,180.824 70.5,182.5C 71.2638,179.982 72.2638,177.649 73.5,175.5 Z"/></g>
<g><path style="opacity:1" fill="#3781bb" d="M 308.5,176.5 C 311.848,178.984 315.181,178.984 318.5,176.5C 319.833,179.5 319.833,182.5 318.5,185.5C 317.548,183.955 317.215,182.288 317.5,180.5C 316.5,180.5 315.5,180.5 314.5,180.5C 314.5,182.167 314.5,183.833 314.5,185.5C 312.5,185.5 310.5,185.5 308.5,185.5C 308.5,182.5 308.5,179.5 308.5,176.5 Z"/></g>
<g><path style="opacity:1" fill="#1567a7" d="M 424.5,176.5 C 426.429,176.231 428.095,176.731 429.5,178C 424.317,177.576 424.15,178.743 429,181.5C 429.684,182.784 429.517,183.951 428.5,185C 426.741,185.798 425.074,185.631 423.5,184.5C 428.545,184.548 428.711,183.214 424,180.5C 423.421,179.072 423.588,177.738 424.5,176.5 Z"/></g>
<g><path style="opacity:1" fill="#3a7a96" d="M 143.5,177.5 C 141.497,179.982 138.831,180.982 135.5,180.5C 130.916,181.869 126.25,182.869 121.5,183.5C 121.611,182.883 121.944,182.383 122.5,182C 129.626,180.705 136.626,179.205 143.5,177.5 Z"/></g>
<g><path style="opacity:1" fill="#1367a7" d="M 280.5,179.5 C 281.693,179.97 282.36,180.97 282.5,182.5C 282.167,183.5 281.833,184.5 281.5,185.5C 280.534,183.604 280.201,181.604 280.5,179.5 Z"/></g>
<g><path style="opacity:1" fill="#2675b1" d="M 327.5,176.5 C 328.765,177.514 329.431,179.014 329.5,181C 329.167,182.5 328.833,184 328.5,185.5C 327.516,182.572 327.183,179.572 327.5,176.5 Z"/></g>
<g><path style="opacity:1" fill="#2472af" d="M 336.5,176.5 C 337.833,176.5 339.167,176.5 340.5,176.5C 340.579,177.93 340.246,179.264 339.5,180.5C 340.376,181.251 341.376,181.751 342.5,182C 341.663,183.011 341.33,184.178 341.5,185.5C 334.088,185.987 332.422,182.987 336.5,176.5 Z"/></g>
<g><path style="opacity:1" fill="#2977b3" d="M 406.5,178.5 C 411.328,178.385 412.661,180.552 410.5,185C 409.207,185.49 407.873,185.657 406.5,185.5C 405.167,183.167 405.167,180.833 406.5,178.5 Z"/></g>
<g><path style="opacity:1" fill="#2271ae" d="M 460.5,178.5 C 461.833,178.5 463.167,178.5 464.5,178.5C 464.5,179.833 464.5,181.167 464.5,182.5C 463.325,182.281 462.325,182.614 461.5,183.5C 462.603,183.998 463.603,184.331 464.5,184.5C 463.277,185.614 461.944,185.781 460.5,185C 459.232,182.837 459.232,180.67 460.5,178.5 Z"/></g>
<g><path style="opacity:1" fill="#2977b4" d="M 302.5,178.5 C 303.978,178.238 305.311,178.571 306.5,179.5C 305.975,180.192 305.308,180.692 304.5,181C 306.107,182.049 306.773,183.549 306.5,185.5C 304.712,185.785 303.045,185.452 301.5,184.5C 302.603,184.002 303.603,183.669 304.5,183.5C 301.807,182.468 301.14,180.802 302.5,178.5 Z"/></g>
<g><path style="opacity:1" fill="#2071af" d="M 452.5,176.5 C 453.765,177.514 454.431,179.014 454.5,181C 454.167,182.5 453.833,184 453.5,185.5C 452.516,182.572 452.183,179.572 452.5,176.5 Z"/></g>
<g><path style="opacity:1" fill="#1b6cab" d="M 294.5,178.5 C 296.036,180.025 297.036,182.025 297.5,184.5C 299.37,176.701 300.37,177.035 300.5,185.5C 298.5,185.5 296.5,185.5 294.5,185.5C 294.5,183.167 294.5,180.833 294.5,178.5 Z"/></g>
<g><path style="opacity:1" fill="#1e6ead" d="M 466.5,178.5 C 468.429,178.231 470.095,178.731 471.5,180C 470.262,179.923 469.262,180.089 468.5,180.5C 470.98,181.415 471.647,182.915 470.5,185C 469.056,185.781 467.723,185.614 466.5,184.5C 467.397,184.331 468.397,183.998 469.5,183.5C 468.675,182.614 467.675,182.281 466.5,182.5C 466.5,181.167 466.5,179.833 466.5,178.5 Z"/></g>
<g><path style="opacity:1" fill="#47c3f7" d="M 152.5,175.5 C 149.002,177.337 146.002,179.837 143.5,183C 141.167,183.333 138.833,183.667 136.5,184C 131.034,187.196 125.034,188.696 118.5,188.5C 118.5,187.5 118.5,186.5 118.5,185.5C 125.091,186.409 130.757,184.743 135.5,180.5C 138.831,180.982 141.497,179.982 143.5,177.5C 146.598,177.244 149.598,176.578 152.5,175.5 Z"/></g>
<g><path style="opacity:1" fill="#2271af" d="M 290.5,176.5 C 292.388,178.988 293.055,181.988 292.5,185.5C 290.833,185.5 289.167,185.5 287.5,185.5C 287.5,183.167 287.5,180.833 287.5,178.5C 289.179,178.715 290.179,178.048 290.5,176.5 Z"/></g>
<g><path style="opacity:1" fill="#2a78b4" d="M 321.5,178.5 C 323.144,178.286 324.644,178.62 326,179.5C 326.495,181.473 326.662,183.473 326.5,185.5C 324.5,185.5 322.5,185.5 320.5,185.5C 320.137,183.089 321.137,181.589 323.5,181C 322.244,180.583 321.577,179.75 321.5,178.5 Z"/></g>
<g><path style="opacity:1" fill="#2977b3" d="M 348.5,176.5 C 349.833,176.5 351.167,176.5 352.5,176.5C 352.349,179.718 351.516,180.051 350,177.5C 349.333,179.833 349.333,182.167 350,184.5C 350.826,182.595 351.993,182.261 353.5,183.5C 352.332,185.217 350.665,185.884 348.5,185.5C 346.974,184.508 346.307,183.008 346.5,181C 346.307,178.992 346.974,177.492 348.5,176.5 Z"/></g>
<g><path style="opacity:1" fill="#196baa" d="M 434.5,178.5 C 436.344,180.279 437.01,182.612 436.5,185.5C 434.833,185.5 433.167,185.5 431.5,185.5C 431.363,178.374 432.03,178.041 433.5,184.5C 434.466,182.604 434.799,180.604 434.5,178.5 Z"/></g>
<g><path style="opacity:1" fill="#1465a6" d="M 438.5,179.5 C 440.117,180.589 440.95,182.256 441,184.5C 442.117,183.051 442.784,181.384 443,179.5C 443.495,181.473 443.662,183.473 443.5,185.5C 441.857,185.48 440.524,186.147 439.5,187.5C 438.52,184.914 438.187,182.247 438.5,179.5 Z"/></g>
<g><path style="opacity:1" fill="#1769a8" d="M 445.5,179.5 C 446.999,180.678 447.999,182.345 448.5,184.5C 450.27,177.92 451.103,177.92 451,184.5C 449.307,185.184 447.807,186.184 446.5,187.5C 445.52,184.914 445.187,182.247 445.5,179.5 Z"/></g>
<g><path style="opacity:1" fill="#60b6eb" d="M 406.5,178.5 C 405.167,180.833 405.167,183.167 406.5,185.5C 401.733,186.797 397.066,186.797 392.5,185.5C 393.978,185.762 395.311,185.429 396.5,184.5C 395.726,183.289 394.893,183.289 394,184.5C 393.219,183.056 393.386,181.723 394.5,180.5C 396.529,181.629 396.863,181.129 395.5,179C 394.207,178.51 392.873,178.343 391.5,178.5C 391.5,180.833 391.5,183.167 391.5,185.5C 390.833,185.5 390.167,185.5 389.5,185.5C 389.228,177.114 388.394,176.78 387,184.5C 386.505,182.527 386.338,180.527 386.5,178.5C 384.167,178.5 381.833,178.5 379.5,178.5C 379.192,180.924 379.526,183.257 380.5,185.5C 381.167,183.833 381.833,182.167 382.5,180.5C 383.429,181.689 383.762,183.022 383.5,184.5C 381.277,185.702 378.777,186.369 376,186.5C 373.639,186.496 371.473,186.163 369.5,185.5C 370.833,185.5 372.167,185.5 373.5,185.5C 373.756,183.088 372.756,181.421 370.5,180.5C 371.262,180.089 372.262,179.923 373.5,180C 372.095,178.731 370.429,178.231 368.5,178.5C 368.323,180.981 369.323,182.814 371.5,184C 370.551,184.617 369.718,184.451 369,183.5C 368.536,184.094 368.369,184.761 368.5,185.5C 367.833,185.5 367.167,185.5 366.5,185.5C 366.5,183.167 366.5,180.833 366.5,178.5C 364.833,178.5 363.167,178.5 361.5,178.5C 361.5,180.833 361.5,183.167 361.5,185.5C 360.833,185.5 360.167,185.5 359.5,185.5C 359.637,178.374 358.97,178.041 357.5,184.5C 356.833,182.833 356.167,181.167 355.5,179.5C 353.605,183.143 354.605,185.143 358.5,185.5C 355.167,186.833 351.833,186.833 348.5,185.5C 350.665,185.884 352.332,185.217 353.5,183.5C 351.993,182.261 350.826,182.595 350,184.5C 349.333,182.167 349.333,179.833 350,177.5C 351.516,180.051 352.349,179.718 352.5,176.5C 351.167,176.5 349.833,176.5 348.5,176.5C 349.919,175.549 351.585,175.216 353.5,175.5C 353.281,176.675 353.614,177.675 354.5,178.5C 361.458,177.304 368.458,176.304 375.5,175.5C 377.167,176.167 378.833,176.833 380.5,177.5C 385.167,176.167 389.833,176.167 394.5,177.5C 397.699,174.943 401.366,173.943 405.5,174.5C 405.232,176.099 405.566,177.432 406.5,178.5 Z"/></g>
<g><path style="opacity:1" fill="#2170ae" d="M 392.5,185.5 C 392.167,185.5 391.833,185.5 391.5,185.5C 391.5,183.167 391.5,180.833 391.5,178.5C 392.873,178.343 394.207,178.51 395.5,179C 396.863,181.129 396.529,181.629 394.5,180.5C 393.386,181.723 393.219,183.056 394,184.5C 394.893,183.289 395.726,183.289 396.5,184.5C 395.311,185.429 393.978,185.762 392.5,185.5 Z"/></g>
<g><path style="opacity:1" fill="#1769a9" d="M 359.5,185.5 C 359.167,185.5 358.833,185.5 358.5,185.5C 354.605,185.143 353.605,183.143 355.5,179.5C 356.167,181.167 356.833,182.833 357.5,184.5C 358.97,178.041 359.637,178.374 359.5,185.5 Z"/></g>
<g><path style="opacity:1" fill="#1768a8" d="M 402.5,179.5 C 403.693,179.97 404.36,180.97 404.5,182.5C 404.167,183.5 403.833,184.5 403.5,185.5C 402.534,183.604 402.201,181.604 402.5,179.5 Z"/></g>
<g><path style="opacity:1" fill="#1064a5" d="M 398.5,177.5 C 399.748,178.334 400.415,179.667 400.5,181.5C 400.167,182.833 399.833,184.167 399.5,185.5C 398.52,182.914 398.187,180.247 398.5,177.5 Z"/></g>
<g><path style="opacity:1" fill="#2171ae" d="M 369.5,185.5 C 369.167,185.5 368.833,185.5 368.5,185.5C 368.369,184.761 368.536,184.094 369,183.5C 369.718,184.451 370.551,184.617 371.5,184C 369.323,182.814 368.323,180.981 368.5,178.5C 370.429,178.231 372.095,178.731 373.5,180C 372.262,179.923 371.262,180.089 370.5,180.5C 372.756,181.421 373.756,183.088 373.5,185.5C 372.167,185.5 370.833,185.5 369.5,185.5 Z"/></g>
<g><path style="opacity:1" fill="#307bb6" d="M 389.5,185.5 C 387.379,185.675 385.379,185.341 383.5,184.5C 383.762,183.022 383.429,181.689 382.5,180.5C 381.833,182.167 381.167,183.833 380.5,185.5C 379.526,183.257 379.192,180.924 379.5,178.5C 381.833,178.5 384.167,178.5 386.5,178.5C 386.338,180.527 386.505,182.527 387,184.5C 388.394,176.78 389.228,177.114 389.5,185.5 Z"/></g>
<g><path style="opacity:1" fill="#1062a3" d="M 375.5,177.5 C 376.117,177.611 376.617,177.944 377,178.5C 377.236,180.764 377.736,182.931 378.5,185C 377.552,185.483 376.552,185.649 375.5,185.5C 375.5,182.833 375.5,180.167 375.5,177.5 Z"/></g>
<g><path style="opacity:1" fill="#206ead" d="M 366.5,185.5 C 364.883,184.411 364.05,182.744 364,180.5C 363.95,182.744 363.117,184.411 361.5,185.5C 361.5,183.167 361.5,180.833 361.5,178.5C 363.167,178.5 364.833,178.5 366.5,178.5C 366.5,180.833 366.5,183.167 366.5,185.5 Z"/></g>
<g><path style="opacity:1" fill="#1b4758" d="M 117.5,184.5 C 112.008,186.052 106.674,187.719 101.5,189.5C 98.1501,189.665 94.8168,189.498 91.5,189C 90.944,188.617 90.6107,188.117 90.5,187.5C 99.6059,187.279 108.606,186.279 117.5,184.5 Z"/></g>
<g><path style="opacity:1" fill="#45a7cf" d="M 135.5,180.5 C 130.757,184.743 125.091,186.409 118.5,185.5C 118.5,186.5 118.5,187.5 118.5,188.5C 118.167,188.5 117.833,188.5 117.5,188.5C 112.13,188.392 106.797,188.725 101.5,189.5C 106.674,187.719 112.008,186.052 117.5,184.5C 118.568,183.566 119.901,183.232 121.5,183.5C 126.25,182.869 130.916,181.869 135.5,180.5 Z"/></g>
<g><path style="opacity:0.078" fill="#bfbfbf" d="M 70.5,182.5 C 71.0922,185.631 70.0922,187.964 67.5,189.5C 68.2638,186.982 69.2638,184.649 70.5,182.5 Z"/></g>
<g><path style="opacity:1" fill="#3d4f58" d="M 91.5,145.5 C 89.2106,151.144 86.8772,156.81 84.5,162.5C 82.1824,164.185 81.1824,166.519 81.5,169.5C 78.7691,174.256 76.4358,179.256 74.5,184.5C 72.3987,187.797 71.0653,191.463 70.5,195.5C 68.7497,196.659 67.7497,198.326 67.5,200.5C 66.5166,204.298 66.1832,208.298 66.5,212.5C 66.5,213.167 66.1667,213.5 65.5,213.5C 65.5,208.5 65.5,203.5 65.5,198.5C 67.2798,197.01 67.9465,195.01 67.5,192.5C 67.5,191.5 67.5,190.5 67.5,189.5C 70.0922,187.964 71.0922,185.631 70.5,182.5C 72.8337,180.824 73.8337,178.491 73.5,175.5C 77.4083,172.905 79.0749,169.238 78.5,164.5C 79.5,164.5 80.5,164.5 81.5,164.5C 82.0362,161.445 82.8695,158.445 84,155.5C 85.6734,152.836 87.1734,150.17 88.5,147.5C 89.2223,146.449 90.2223,145.782 91.5,145.5 Z"/></g>
<g><path style="opacity:1" fill="#378fb1" d="M 86.5,184.5 C 87.8333,185.5 89.1667,186.5 90.5,187.5C 90.6107,188.117 90.944,188.617 91.5,189C 94.8168,189.498 98.1501,189.665 101.5,189.5C 98.0242,190.643 94.3575,190.81 90.5,190C 88.5359,188.549 87.2026,186.716 86.5,184.5 Z"/></g>
<g><path style="opacity:0.948" fill="#455860" d="M 533.5,123.5 C 533.5,124.833 533.5,126.167 533.5,127.5C 533.667,158.168 533.5,188.835 533,219.5C 532.616,222.06 531.783,224.394 530.5,226.5C 530.167,226.5 529.833,226.5 529.5,226.5C 527.379,226.325 525.379,226.659 523.5,227.5C 523.5,227.167 523.5,226.833 523.5,226.5C 524.167,225.833 524.833,225.167 525.5,224.5C 525.5,224.167 525.5,223.833 525.5,223.5C 527.167,223.5 528.833,223.5 530.5,223.5C 531.162,219.534 531.495,215.534 531.5,211.5C 531.5,191.833 531.5,172.167 531.5,152.5C 531.334,142.494 531.5,132.494 532,122.5C 532.383,123.056 532.883,123.389 533.5,123.5 Z"/></g>
<g><path style="opacity:0.098" fill="#b7b8b8" d="M 67.5,192.5 C 67.9465,195.01 67.2798,197.01 65.5,198.5C 65.595,196.214 66.2616,194.214 67.5,192.5 Z"/></g>
<g><path style="opacity:1" fill="#48c4f9" d="M 81.5,174.5 C 80.8991,182.023 78.7324,189.023 75,195.5C 74.502,198.482 74.3354,201.482 74.5,204.5C 76.5273,204.338 78.5273,204.505 80.5,205C 82.951,207.84 85.451,208.006 88,205.5C 89,206.5 90,207.5 91,208.5C 90.0308,215.71 89.1975,223.043 88.5,230.5C 87.8933,230.376 87.56,230.043 87.5,229.5C 87.5,223.167 87.5,216.833 87.5,210.5C 85.3146,210.296 83.3146,209.63 81.5,208.5C 81.1667,208.5 80.8333,208.5 80.5,208.5C 77.7131,207.523 74.7131,207.19 71.5,207.5C 71.3342,202.821 71.5008,198.155 72,193.5C 73.6044,190.753 74.4378,187.753 74.5,184.5C 77.6815,181.67 80.0149,178.336 81.5,174.5 Z"/></g>
<g><path style="opacity:1" fill="#787b7d" d="M 218.5,92.5 C 218.5,92.8333 218.5,93.1667 218.5,93.5C 218.5,116.833 218.5,140.167 218.5,163.5C 218.5,173.167 218.5,182.833 218.5,192.5C 217.523,195.287 217.19,198.287 217.5,201.5C 214.591,201.97 211.591,201.637 208.5,200.5C 208.784,198.585 208.451,196.919 207.5,195.5C 207.5,168.833 207.5,142.167 207.5,115.5C 208.491,122.313 208.825,129.313 208.5,136.5C 208.333,155.17 208.5,173.836 209,192.5C 209.383,191.944 209.883,191.611 210.5,191.5C 209.842,195.677 211.508,197.177 215.5,196C 216.423,193.959 216.756,191.792 216.5,189.5C 217.195,160.233 217.195,130.9 216.5,101.5C 216.991,98.3257 217.657,95.3257 218.5,92.5 Z"/></g>
<g><path style="opacity:0.066" fill="#050505" d="M 210.5,189.5 C 212.5,189.5 214.5,189.5 216.5,189.5C 216.756,191.792 216.423,193.959 215.5,196C 211.508,197.177 209.842,195.677 210.5,191.5C 210.5,190.833 210.5,190.167 210.5,189.5 Z"/></g>
<g><path style="opacity:0.254" fill="#a8a9aa" d="M 208.5,136.5 C 209.404,154 210.07,171.667 210.5,189.5C 210.5,190.167 210.5,190.833 210.5,191.5C 209.883,191.611 209.383,191.944 209,192.5C 208.5,173.836 208.333,155.17 208.5,136.5 Z"/></g>
<g><path style="opacity:0.156" fill="#9a9a99" d="M 65.5,198.5 C 65.5,203.5 65.5,208.5 65.5,213.5C 65.1667,213.5 64.8333,213.5 64.5,213.5C 64.1667,213.5 63.8333,213.5 63.5,213.5C 64.0678,208.363 64.7344,203.363 65.5,198.5 Z"/></g>
<g><path style="opacity:1" fill="#449abd" d="M 74.5,184.5 C 74.4378,187.753 73.6044,190.753 72,193.5C 71.5008,198.155 71.3342,202.821 71.5,207.5C 74.7131,207.19 77.7131,207.523 80.5,208.5C 76.8333,209.167 73.1667,209.833 69.5,210.5C 69.2743,205.438 69.6076,200.438 70.5,195.5C 71.0653,191.463 72.3987,187.797 74.5,184.5 Z"/></g>
<g><path style="opacity:1" fill="#10171a" d="M 67.5,200.5 C 67.335,203.85 67.5017,207.183 68,210.5C 70.3806,211.435 72.8806,211.768 75.5,211.5C 72.7131,212.477 69.7131,212.81 66.5,212.5C 66.1832,208.298 66.5166,204.298 67.5,200.5 Z"/></g>
<g><path style="opacity:1" fill="#285564" d="M 70.5,195.5 C 69.6076,200.438 69.2743,205.438 69.5,210.5C 73.1667,209.833 76.8333,209.167 80.5,208.5C 80.8333,208.5 81.1667,208.5 81.5,208.5C 81.8564,210.19 82.8564,211.19 84.5,211.5C 84.5,215.5 84.5,219.5 84.5,223.5C 84.5,224.833 84.5,226.167 84.5,227.5C 84.5,228.167 84.5,228.833 84.5,229.5C 84.1667,229.5 83.8333,229.5 83.5,229.5C 83.5,226.833 83.5,224.167 83.5,221.5C 83.8174,218.428 83.4841,215.428 82.5,212.5C 80.2534,211.626 77.9201,211.292 75.5,211.5C 72.8806,211.768 70.3806,211.435 68,210.5C 67.5017,207.183 67.335,203.85 67.5,200.5C 67.7497,198.326 68.7497,196.659 70.5,195.5 Z"/></g>
<g><path style="opacity:1" fill="#3eaedd" d="M 223.5,211.5 C 325.167,211.5 426.833,211.5 528.5,211.5C 528.5,212.167 528.5,212.833 528.5,213.5C 426.167,213.5 323.833,213.5 221.5,213.5C 221.5,213.167 221.5,212.833 221.5,212.5C 222.167,212.167 222.833,211.833 223.5,211.5 Z"/></g>
<g><path style="opacity:1" fill="#313117" d="M 75.5,211.5 C 77.9201,211.292 80.2534,211.626 82.5,212.5C 83.4841,215.428 83.8174,218.428 83.5,221.5C 82.8333,224.167 82.1667,226.833 81.5,229.5C 81.5,224.167 81.5,218.833 81.5,213.5C 77.1539,213.334 72.8206,213.501 68.5,214C 67.6195,214.708 66.9528,215.542 66.5,216.5C 66.1667,216.5 65.8333,216.5 65.5,216.5C 64.5206,219.625 64.1872,222.958 64.5,226.5C 63.2057,222.267 63.2057,217.934 64.5,213.5C 64.8333,213.5 65.1667,213.5 65.5,213.5C 66.1667,213.5 66.5,213.167 66.5,212.5C 69.7131,212.81 72.7131,212.477 75.5,211.5 Z"/></g>
<g><path style="opacity:1" fill="#29a8df" d="M 201.5,215.5 C 201.5,215.833 201.5,216.167 201.5,216.5C 183.833,216.5 166.167,216.5 148.5,216.5C 162.661,215.669 176.994,215.169 191.5,215C 192.025,214.308 192.692,213.808 193.5,213.5C 195.868,215.223 198.534,215.89 201.5,215.5 Z"/></g>
<g><path style="opacity:1" fill="#e9da37" d="M 80.5,226.5 C 76.8333,226.5 73.1667,226.5 69.5,226.5C 69.5,226.167 69.5,225.833 69.5,225.5C 68.5416,225.047 67.7083,224.381 67,223.5C 66.5034,221.19 66.3367,218.857 66.5,216.5C 71.0068,214.887 75.6734,214.221 80.5,214.5C 80.5,218.5 80.5,222.5 80.5,226.5 Z"/></g>
<g><path style="opacity:1" fill="#111e25" d="M 205.5,211.5 C 206.167,211.5 206.833,211.5 207.5,211.5C 207.5,213.833 207.5,216.167 207.5,218.5C 210.833,218.5 214.167,218.5 217.5,218.5C 217.5,219.5 217.5,220.5 217.5,221.5C 214.167,221.5 210.833,221.5 207.5,221.5C 207.5,222.833 207.5,224.167 207.5,225.5C 189.5,225.5 171.5,225.5 153.5,225.5C 152.833,225.5 152.5,225.167 152.5,224.5C 153.708,223.766 155.041,223.433 156.5,223.5C 172.833,223.5 189.167,223.5 205.5,223.5C 205.5,221.167 205.5,218.833 205.5,216.5C 205.5,214.833 205.5,213.167 205.5,211.5 Z"/></g>
<g><path style="opacity:1" fill="#414345" d="M 218.5,192.5 C 218.826,201.349 218.493,210.016 217.5,218.5C 214.167,218.5 210.833,218.5 207.5,218.5C 207.5,216.167 207.5,213.833 207.5,211.5C 207.5,206.167 207.5,200.833 207.5,195.5C 208.451,196.919 208.784,198.585 208.5,200.5C 208.334,205.511 208.501,210.511 209,215.5C 209.42,211.809 209.92,208.142 210.5,204.5C 211.978,204.238 213.311,204.571 214.5,205.5C 215.213,207.776 215.713,210.109 216,212.5C 217.415,209.042 217.915,205.375 217.5,201.5C 217.19,198.287 217.523,195.287 218.5,192.5 Z"/></g>
<g><path style="opacity:1" fill="#5c5b5b" d="M 208.5,200.5 C 211.591,201.637 214.591,201.97 217.5,201.5C 217.915,205.375 217.415,209.042 216,212.5C 215.713,210.109 215.213,207.776 214.5,205.5C 213.311,204.571 211.978,204.238 210.5,204.5C 209.92,208.142 209.42,211.809 209,215.5C 208.501,210.511 208.334,205.511 208.5,200.5 Z"/></g>
<g><path style="opacity:1" fill="#fae627" d="M 69.5,225.5 C 68.7347,222.904 68.4013,220.237 68.5,217.5C 72.1064,217.789 75.6064,217.456 79,216.5C 79.4954,219.531 79.3287,222.531 78.5,225.5C 75.5,225.5 72.5,225.5 69.5,225.5 Z"/></g>
<g><path style="opacity:1" fill="#068aba" d="M 221.5,214.5 C 221.5,214.167 221.5,213.833 221.5,213.5C 323.833,213.5 426.167,213.5 528.5,213.5C 426.999,214.167 325.333,214.833 223.5,215.5C 315.833,216.167 408.167,216.833 500.5,217.5C 500.709,218.086 501.043,218.586 501.5,219C 507.833,219.333 514.167,219.667 520.5,220C 513.913,221.212 507.246,221.879 500.5,222C 407.834,222.5 315.167,222.667 222.5,222.5C 222.806,219.615 222.473,216.948 221.5,214.5 Z"/></g>
<g><path style="opacity:1" fill="#131b2d" d="M 218.5,163.5 C 219.167,163.5 219.833,163.5 220.5,163.5C 220.5,179.833 220.5,196.167 220.5,212.5C 220.183,216.702 220.517,220.702 221.5,224.5C 222.833,225.167 224.167,225.833 225.5,226.5C 223.167,226.5 220.833,226.5 218.5,226.5C 218.784,224.585 218.451,222.919 217.5,221.5C 217.5,220.5 217.5,219.5 217.5,218.5C 218.493,210.016 218.826,201.349 218.5,192.5C 218.5,182.833 218.5,173.167 218.5,163.5 Z"/></g>
<g><path style="opacity:0.999" fill="#615c20" d="M 65.5,216.5 C 65.3359,219.187 65.5026,221.854 66,224.5C 66.8159,225.823 67.9826,226.489 69.5,226.5C 69.5,226.833 69.5,227.167 69.5,227.5C 68.5,227.5 67.5,227.5 66.5,227.5C 65.8333,227.167 65.1667,226.833 64.5,226.5C 64.1872,222.958 64.5206,219.625 65.5,216.5 Z"/></g>
<g><path style="opacity:1" fill="#3582a0" d="M 84.5,211.5 C 85.9931,212.312 86.6598,213.645 86.5,215.5C 86.1957,218.386 85.529,221.052 84.5,223.5C 84.5,219.5 84.5,215.5 84.5,211.5 Z"/></g>
<g><path style="opacity:1" fill="#a79f2e" d="M 65.5,216.5 C 65.8333,216.5 66.1667,216.5 66.5,216.5C 66.3367,218.857 66.5034,221.19 67,223.5C 67.7083,224.381 68.5416,225.047 69.5,225.5C 69.5,225.833 69.5,226.167 69.5,226.5C 67.9826,226.489 66.8159,225.823 66,224.5C 65.5026,221.854 65.3359,219.187 65.5,216.5 Z"/></g>
<g><path style="opacity:1" fill="#136280" d="M 204.5,221.5 C 188.5,222.167 172.5,222.833 156.5,223.5C 155.041,223.433 153.708,223.766 152.5,224.5C 150.745,225.072 149.078,225.906 147.5,227C 146.672,228.992 145.339,230.492 143.5,231.5C 145.043,229.072 146.043,226.406 146.5,223.5C 149.32,223.752 151.986,223.252 154.5,222C 171.163,221.5 187.83,221.333 204.5,221.5 Z"/></g>
<g><path style="opacity:1" fill="#0e4a5f" d="M 204.5,216.5 C 204.833,216.5 205.167,216.5 205.5,216.5C 205.5,218.833 205.5,221.167 205.5,223.5C 189.167,223.5 172.833,223.5 156.5,223.5C 172.5,222.833 188.5,222.167 204.5,221.5C 204.5,219.833 204.5,218.167 204.5,216.5 Z"/></g>
<g><path style="opacity:1" fill="#0584b2" d="M 531.5,211.5 C 531.495,215.534 531.162,219.534 530.5,223.5C 528.833,223.5 527.167,223.5 525.5,223.5C 424.167,223.5 322.833,223.5 221.5,223.5C 221.5,220.5 221.5,217.5 221.5,214.5C 222.473,216.948 222.806,219.615 222.5,222.5C 315.167,222.667 407.834,222.5 500.5,222C 507.246,221.879 513.913,221.212 520.5,220C 514.167,219.667 507.833,219.333 501.5,219C 501.043,218.586 500.709,218.086 500.5,217.5C 408.167,216.833 315.833,216.167 223.5,215.5C 325.333,214.833 426.999,214.167 528.5,213.5C 529.778,213.218 530.778,212.551 531.5,211.5 Z"/></g>
<g><path style="opacity:1" fill="#026186" d="M 220.5,212.5 C 220.833,212.5 221.167,212.5 221.5,212.5C 221.5,212.833 221.5,213.167 221.5,213.5C 221.5,213.833 221.5,214.167 221.5,214.5C 221.5,217.5 221.5,220.5 221.5,223.5C 322.833,223.5 424.167,223.5 525.5,223.5C 525.5,223.833 525.5,224.167 525.5,224.5C 463.5,224.5 401.5,224.5 339.5,224.5C 300.167,224.5 260.833,224.5 221.5,224.5C 220.517,220.702 220.183,216.702 220.5,212.5 Z"/></g>
<g><path style="opacity:1" fill="#303030" d="M 217.5,221.5 C 218.451,222.919 218.784,224.585 218.5,226.5C 218.167,226.5 217.833,226.5 217.5,226.5C 217.167,226.5 216.833,226.5 216.5,226.5C 216.5,225.167 216.5,223.833 216.5,222.5C 213.833,222.5 211.167,222.5 208.5,222.5C 208.5,223.833 208.5,225.167 208.5,226.5C 208.167,226.5 207.833,226.5 207.5,226.5C 189.5,226.5 171.5,226.5 153.5,226.5C 153.5,226.167 153.5,225.833 153.5,225.5C 171.5,225.5 189.5,225.5 207.5,225.5C 207.5,224.167 207.5,222.833 207.5,221.5C 210.833,221.5 214.167,221.5 217.5,221.5 Z"/></g>
<g><path style="opacity:1" fill="#7c7c7c" d="M 216.5,226.5 C 215.358,224.028 213.358,223.028 210.5,223.5C 210.715,225.179 210.048,226.179 208.5,226.5C 208.5,225.167 208.5,223.833 208.5,222.5C 211.167,222.5 213.833,222.5 216.5,222.5C 216.5,223.833 216.5,225.167 216.5,226.5 Z"/></g>
<g><path style="opacity:1" fill="#102d41" d="M 221.5,224.5 C 260.833,224.5 300.167,224.5 339.5,224.5C 339.5,225.167 339.5,225.833 339.5,226.5C 301.5,226.5 263.5,226.5 225.5,226.5C 224.167,225.833 222.833,225.167 221.5,224.5 Z"/></g>
<g><path style="opacity:1" fill="#0f3a50" d="M 339.5,224.5 C 401.5,224.5 463.5,224.5 525.5,224.5C 524.833,225.167 524.167,225.833 523.5,226.5C 522.833,226.5 522.5,226.833 522.5,227.5C 516.37,226.234 510.37,226.234 504.5,227.5C 503.167,227.5 501.833,227.5 500.5,227.5C 446.905,226.505 393.238,226.171 339.5,226.5C 339.5,225.833 339.5,225.167 339.5,224.5 Z"/></g>
<g><path style="opacity:1" fill="#767676" d="M 153.5,226.5 C 171.5,226.5 189.5,226.5 207.5,226.5C 189.671,227.332 171.671,227.832 153.5,228C 151.375,229.813 149.375,231.647 147.5,233.5C 147.167,233.5 146.833,233.5 146.5,233.5C 148.151,230.577 150.484,228.243 153.5,226.5 Z"/></g>
<g><path style="opacity:1" fill="#a7a22e" d="M 69.5,227.5 C 69.5,227.167 69.5,226.833 69.5,226.5C 73.1667,226.5 76.8333,226.5 80.5,226.5C 79.8478,227.725 78.6811,228.392 77,228.5C 75.1216,228.304 73.2883,227.971 71.5,227.5C 70.8333,227.5 70.1667,227.5 69.5,227.5 Z"/></g>
<g><path style="opacity:1" fill="#47aed4" d="M 81.5,208.5 C 83.3146,209.63 85.3146,210.296 87.5,210.5C 87.5,216.833 87.5,223.167 87.5,229.5C 86.5,228.833 85.5,228.167 84.5,227.5C 84.5,226.167 84.5,224.833 84.5,223.5C 85.529,221.052 86.1957,218.386 86.5,215.5C 86.6598,213.645 85.9931,212.312 84.5,211.5C 82.8564,211.19 81.8564,210.19 81.5,208.5 Z"/></g>
<g><path style="opacity:1" fill="#50585d" d="M 217.5,226.5 C 217.833,226.5 218.167,226.5 218.5,226.5C 220.833,226.5 223.167,226.5 225.5,226.5C 263.5,226.5 301.5,226.5 339.5,226.5C 393.238,226.171 446.905,226.505 500.5,227.5C 500.5,228.167 500.5,228.833 500.5,229.5C 500.167,229.5 499.833,229.5 499.5,229.5C 406.001,228.667 312.334,228.167 218.5,228C 217.944,227.617 217.611,227.117 217.5,226.5 Z"/></g>
<g><path style="opacity:1" fill="#7a7425" d="M 81.5,229.5 C 81.1667,229.5 80.8333,229.5 80.5,229.5C 77.8127,229.664 75.146,229.497 72.5,229C 71.944,228.617 71.6107,228.117 71.5,227.5C 73.2883,227.971 75.1216,228.304 77,228.5C 78.6811,228.392 79.8478,227.725 80.5,226.5C 80.5,222.5 80.5,218.5 80.5,214.5C 75.6734,214.221 71.0068,214.887 66.5,216.5C 66.9528,215.542 67.6195,214.708 68.5,214C 72.8206,213.501 77.1539,213.334 81.5,213.5C 81.5,218.833 81.5,224.167 81.5,229.5 Z"/></g>
<g><path style="opacity:1" fill="#7e7e7e" d="M 216.5,226.5 C 216.833,226.5 217.167,226.5 217.5,226.5C 217.611,227.117 217.944,227.617 218.5,228C 312.334,228.167 406.001,228.667 499.5,229.5C 405.096,229.831 310.763,229.497 216.5,228.5C 216.5,227.833 216.5,227.167 216.5,226.5 Z"/></g>
<g><path style="opacity:1" fill="#1b2831" d="M 152.5,224.5 C 152.5,225.167 152.833,225.5 153.5,225.5C 153.5,225.833 153.5,226.167 153.5,226.5C 150.484,228.243 148.151,230.577 146.5,233.5C 146.167,234.167 145.833,234.833 145.5,235.5C 144.833,236.167 144.167,236.833 143.5,237.5C 141.926,237.937 140.759,238.937 140,240.5C 139.875,243.738 138.708,246.405 136.5,248.5C 131.431,251.774 130.431,255.774 133.5,260.5C 133.083,261.124 132.416,261.457 131.5,261.5C 129.823,260.813 128.156,260.146 126.5,259.5C 130.69,249.256 136.356,239.923 143.5,231.5C 145.339,230.492 146.672,228.992 147.5,227C 149.078,225.906 150.745,225.072 152.5,224.5 Z"/></g>
<g><path style="opacity:1" fill="#a7a7a7" d="M 216.5,228.5 C 310.763,229.497 405.096,229.831 499.5,229.5C 499.5,229.833 499.5,230.167 499.5,230.5C 405.167,230.5 310.833,230.5 216.5,230.5C 216.5,229.833 216.5,229.167 216.5,228.5 Z"/></g>
<g><path style="opacity:1" fill="#0a83b1" d="M 148.5,216.5 C 166.167,216.5 183.833,216.5 201.5,216.5C 202.5,216.5 203.5,216.5 204.5,216.5C 204.5,218.167 204.5,219.833 204.5,221.5C 187.83,221.333 171.163,221.5 154.5,222C 151.986,223.252 149.32,223.752 146.5,223.5C 146.043,226.406 145.043,229.072 143.5,231.5C 136.356,239.923 130.69,249.256 126.5,259.5C 125.5,261.167 124.167,262.5 122.5,263.5C 109.821,263.525 97.1548,263.192 84.5,262.5C 84.5,261.167 84.5,259.833 84.5,258.5C 95.505,258.667 106.505,258.5 117.5,258C 122.937,249.674 128.27,241.174 133.5,232.5C 136.1,229.637 137.933,226.303 139,222.5C 141.903,219.854 145.07,217.854 148.5,216.5 Z"/></g>
<g><path style="opacity:1" fill="#c8c8c8" d="M 216.5,230.5 C 310.833,230.5 405.167,230.5 499.5,230.5C 499.666,238.84 499.5,247.173 499,255.5C 498.147,257.603 496.98,257.603 495.5,255.5C 496.263,247.858 496.597,240.191 496.5,232.5C 467.831,232.333 439.165,232.5 410.5,233C 409.113,234.683 407.447,235.85 405.5,236.5C 403.5,236.5 401.5,236.5 399.5,236.5C 398.448,236.649 397.448,236.483 396.5,236C 396.833,235.667 397.167,235.333 397.5,235C 400.5,234.667 403.5,234.333 406.5,234C 405.833,233.667 405.167,233.333 404.5,233C 342.167,232.667 279.833,232.333 217.5,232C 216.944,231.617 216.611,231.117 216.5,230.5 Z"/></g>
<g><path style="opacity:0.906" fill="#4d1917" d="M 522.5,227.5 C 522.5,232.5 522.5,237.5 522.5,242.5C 522.167,242.5 521.833,242.5 521.5,242.5C 521.5,237.833 521.5,233.167 521.5,228.5C 515.741,228.214 510.075,228.548 504.5,229.5C 504.5,228.833 504.5,228.167 504.5,227.5C 510.37,226.234 516.37,226.234 522.5,227.5 Z"/></g>
<g><path style="opacity:0.035" fill="#aba1a1" d="M 529.5,226.5 C 528.122,227.234 526.622,227.901 525,228.5C 524.826,233.684 524.326,238.684 523.5,243.5C 523.5,238.167 523.5,232.833 523.5,227.5C 525.379,226.659 527.379,226.325 529.5,226.5 Z"/></g>
<g><path style="opacity:0.415" fill="#6e5452" d="M 523.5,226.5 C 523.5,226.833 523.5,227.167 523.5,227.5C 523.5,232.833 523.5,238.167 523.5,243.5C 523.912,245.973 522.912,247.306 520.5,247.5C 521.942,246.18 522.608,244.514 522.5,242.5C 522.5,237.5 522.5,232.5 522.5,227.5C 522.5,226.833 522.833,226.5 523.5,226.5 Z"/></g>
<g><path style="opacity:1" fill="#b9b9b9" d="M 495.5,255.5 C 487.904,252.355 480.904,248.188 474.5,243C 473.167,242.667 471.833,242.333 470.5,242C 453.532,240.781 436.532,239.948 419.5,239.5C 418.942,238.21 417.942,237.377 416.5,237C 412.848,236.501 409.182,236.335 405.5,236.5C 407.447,235.85 409.113,234.683 410.5,233C 439.165,232.5 467.831,232.333 496.5,232.5C 496.597,240.191 496.263,247.858 495.5,255.5 Z"/></g>
<g><path style="opacity:1" fill="#1e2831" d="M 83.5,221.5 C 83.5,224.167 83.5,226.833 83.5,229.5C 83.5858,230.496 83.2524,231.329 82.5,232C 78.8484,232.499 75.1817,232.665 71.5,232.5C 70.8333,234.167 70.1667,235.833 69.5,237.5C 68.8233,234.139 67.8233,230.806 66.5,227.5C 67.5,227.5 68.5,227.5 69.5,227.5C 69.8039,228.15 70.1373,228.817 70.5,229.5C 73.9798,230.806 77.3132,230.806 80.5,229.5C 80.8333,229.5 81.1667,229.5 81.5,229.5C 82.1667,226.833 82.8333,224.167 83.5,221.5 Z"/></g>
<g><path style="opacity:1" fill="#38391d" d="M 69.5,227.5 C 70.1667,227.5 70.8333,227.5 71.5,227.5C 71.6107,228.117 71.944,228.617 72.5,229C 75.146,229.497 77.8127,229.664 80.5,229.5C 77.3132,230.806 73.9798,230.806 70.5,229.5C 70.1373,228.817 69.8039,228.15 69.5,227.5 Z"/></g>
<g><path style="opacity:1" fill="#bdbdbd" d="M 216.5,226.5 C 216.5,227.167 216.5,227.833 216.5,228.5C 216.5,229.167 216.5,229.833 216.5,230.5C 216.611,231.117 216.944,231.617 217.5,232C 279.833,232.333 342.167,232.667 404.5,233C 405.167,233.333 405.833,233.667 406.5,234C 403.5,234.333 400.5,234.667 397.5,235C 397.167,235.333 396.833,235.667 396.5,236C 397.448,236.483 398.448,236.649 399.5,236.5C 397.11,238.02 394.443,239.02 391.5,239.5C 339.325,239.403 287.159,238.736 235,237.5C 216.152,237.547 197.319,237.881 178.5,238.5C 176.621,237.659 174.621,237.325 172.5,237.5C 164.35,236.507 156.017,236.174 147.5,236.5C 147.5,235.5 147.5,234.5 147.5,233.5C 149.375,231.647 151.375,229.813 153.5,228C 171.671,227.832 189.671,227.332 207.5,226.5C 207.833,226.5 208.167,226.5 208.5,226.5C 210.048,226.179 210.715,225.179 210.5,223.5C 213.358,223.028 215.358,224.028 216.5,226.5 Z"/></g>
<g><path style="opacity:1" fill="#a7a7a7" d="M 146.5,233.5 C 146.833,233.5 147.167,233.5 147.5,233.5C 147.5,234.5 147.5,235.5 147.5,236.5C 156.017,236.174 164.35,236.507 172.5,237.5C 168.833,237.5 165.167,237.5 161.5,237.5C 156.524,238.592 151.524,239.592 146.5,240.5C 145.548,238.955 145.215,237.288 145.5,235.5C 145.833,234.833 146.167,234.167 146.5,233.5 Z"/></g>
<g><path style="opacity:1" fill="#461312" d="M 504.5,229.5 C 504.5,231.167 504.5,232.833 504.5,234.5C 503.203,239.066 503.203,243.733 504.5,248.5C 503.182,245.742 502.515,242.576 502.5,239C 502.515,235.424 503.182,232.258 504.5,229.5 Z"/></g>
<g><path style="opacity:1" fill="#396b7d" d="M 71.5,232.5 C 71.0023,239.316 74.0023,242.983 80.5,243.5C 78.5,243.5 76.5,243.5 74.5,243.5C 72.8828,242.962 71.2161,242.629 69.5,242.5C 69.5,240.833 69.5,239.167 69.5,237.5C 70.1667,235.833 70.8333,234.167 71.5,232.5 Z"/></g>
<g><path style="opacity:1" fill="#7c7b7d" d="M 145.5,235.5 C 145.215,237.288 145.548,238.955 146.5,240.5C 151.524,239.592 156.524,238.592 161.5,237.5C 159.5,238.5 157.5,239.5 155.5,240.5C 154.833,240.5 154.167,240.5 153.5,240.5C 149.719,242.585 145.719,242.918 141.5,241.5C 142.18,240.14 142.847,238.807 143.5,237.5C 144.167,236.833 144.833,236.167 145.5,235.5 Z"/></g>
<g><path style="opacity:1" fill="#a8a8a8" d="M 391.5,239.5 C 323.669,240.499 255.669,240.833 187.5,240.5C 184.39,239.912 181.39,239.245 178.5,238.5C 197.319,237.881 216.152,237.547 235,237.5C 287.159,238.736 339.325,239.403 391.5,239.5 Z"/></g>
<g><path style="opacity:1" fill="#222222" d="M 161.5,237.5 C 165.167,237.5 168.833,237.5 172.5,237.5C 175.719,239.718 179.386,240.885 183.5,241C 185.66,241.996 187.327,243.496 188.5,245.5C 187.167,245.5 186.5,246.167 186.5,247.5C 185.395,246.4 184.062,245.733 182.5,245.5C 175.085,242.944 167.418,241.944 159.5,242.5C 163.07,241.615 166.737,240.615 170.5,239.5C 169.167,239.167 167.833,238.833 166.5,238.5C 162.824,239.171 159.157,239.838 155.5,240.5C 157.5,239.5 159.5,238.5 161.5,237.5 Z"/></g>
<g><path style="opacity:1" fill="#828282" d="M 399.5,236.5 C 401.5,236.5 403.5,236.5 405.5,236.5C 409.182,236.335 412.848,236.501 416.5,237C 417.942,237.377 418.942,238.21 419.5,239.5C 411.24,236.532 403.24,236.866 395.5,240.5C 393.784,240.629 392.117,240.962 390.5,241.5C 388.804,241.685 387.471,242.519 386.5,244C 369.837,244.5 353.17,244.667 336.5,244.5C 317.833,244.5 299.167,244.5 280.5,244.5C 273.011,243.671 265.344,243.171 257.5,243C 265.167,242.667 272.833,242.333 280.5,242C 249.502,241.5 218.502,241.333 187.5,241.5C 187.5,241.167 187.5,240.833 187.5,240.5C 255.669,240.833 323.669,240.499 391.5,239.5C 394.443,239.02 397.11,238.02 399.5,236.5 Z"/></g>
<g><path style="opacity:1" fill="#787878" d="M 187.5,241.5 C 218.502,241.333 249.502,241.5 280.5,242C 272.833,242.333 265.167,242.667 257.5,243C 265.344,243.171 273.011,243.671 280.5,244.5C 249.825,244.531 219.159,244.031 188.5,243C 187.944,242.617 187.611,242.117 187.5,241.5 Z"/></g>
<g><path style="opacity:1" fill="#711c16" d="M 504.5,234.5 C 504.334,238.514 504.501,242.514 505,246.5C 505.671,247.252 506.504,247.586 507.5,247.5C 507.5,247.833 507.5,248.167 507.5,248.5C 506.5,248.5 505.5,248.5 504.5,248.5C 503.203,243.733 503.203,239.066 504.5,234.5 Z"/></g>
<g><path style="opacity:1" fill="#818181" d="M 499.5,229.5 C 499.833,229.5 500.167,229.5 500.5,229.5C 500.752,240.356 500.419,251.19 499.5,262C 499.167,263.167 498.833,264.333 498.5,265.5C 497.264,264.754 495.93,264.421 494.5,264.5C 493.71,263.206 492.71,262.039 491.5,261C 487.244,259.193 482.911,257.693 478.5,256.5C 476.155,253.925 473.155,252.925 469.5,253.5C 469.5,252.5 469.5,251.5 469.5,250.5C 467.167,249.833 464.833,249.167 462.5,248.5C 462.5,248.167 462.5,247.833 462.5,247.5C 462.196,246.85 461.863,246.183 461.5,245.5C 451.183,244.668 440.849,244.168 430.5,244C 428.186,242.733 425.852,241.566 423.5,240.5C 422.167,240.5 420.833,240.5 419.5,240.5C 419.5,240.167 419.5,239.833 419.5,239.5C 436.532,239.948 453.532,240.781 470.5,242C 471.833,242.333 473.167,242.667 474.5,243C 480.904,248.188 487.904,252.355 495.5,255.5C 496.98,257.603 498.147,257.603 499,255.5C 499.5,247.173 499.666,238.84 499.5,230.5C 499.5,230.167 499.5,229.833 499.5,229.5 Z"/></g>
<g><path style="opacity:1" fill="#585858" d="M 172.5,237.5 C 174.621,237.325 176.621,237.659 178.5,238.5C 181.39,239.245 184.39,239.912 187.5,240.5C 187.5,240.833 187.5,241.167 187.5,241.5C 187.611,242.117 187.944,242.617 188.5,243C 219.159,244.031 249.825,244.531 280.5,244.5C 299.167,244.5 317.833,244.5 336.5,244.5C 336.5,244.833 336.5,245.167 336.5,245.5C 287.167,245.5 237.833,245.5 188.5,245.5C 187.327,243.496 185.66,241.996 183.5,241C 179.386,240.885 175.719,239.718 172.5,237.5 Z"/></g>
<g><path style="opacity:1" fill="#777777" d="M 420.5,244.5 C 421.848,245.601 423.348,246.601 425,247.5C 425.483,248.448 425.649,249.448 425.5,250.5C 417.028,248.542 408.362,248.042 399.5,249C 393.964,250.931 389.298,254.098 385.5,258.5C 385.167,258 384.833,257.5 384.5,257C 385.741,255.269 386.741,253.436 387.5,251.5C 387.427,249.973 388.094,248.973 389.5,248.5C 392.025,246.823 394.691,245.323 397.5,244C 405.202,243.269 412.869,243.436 420.5,244.5 Z"/></g>
<g><path style="opacity:1" fill="#2a2e32" d="M 69.5,242.5 C 71.2161,242.629 72.8828,242.962 74.5,243.5C 74.5,244.167 74.5,244.833 74.5,245.5C 72.5,245.5 70.5,245.5 68.5,245.5C 68.2627,244.209 68.596,243.209 69.5,242.5 Z"/></g>
<g><path style="opacity:1" fill="#3d3d3d" d="M 143.5,237.5 C 142.847,238.807 142.18,240.14 141.5,241.5C 145.719,242.918 149.719,242.585 153.5,240.5C 150.325,243.977 146.325,245.644 141.5,245.5C 141.917,249.936 140.25,253.269 136.5,255.5C 137.146,253.844 137.813,252.177 138.5,250.5C 138.253,249.287 137.586,248.62 136.5,248.5C 138.708,246.405 139.875,243.738 140,240.5C 140.759,238.937 141.926,237.937 143.5,237.5 Z"/></g>
<g><path style="opacity:1" fill="#636363" d="M 390.5,241.5 C 389.5,243.167 388.167,244.5 386.5,245.5C 369.833,245.5 353.167,245.5 336.5,245.5C 336.5,245.167 336.5,244.833 336.5,244.5C 353.17,244.667 369.837,244.5 386.5,244C 387.471,242.519 388.804,241.685 390.5,241.5 Z"/></g>
<g><path style="opacity:1" fill="#393939" d="M 159.5,242.5 C 155.878,244.493 152.211,246.493 148.5,248.5C 151.318,245 154.985,243 159.5,242.5 Z"/></g>
<g><path style="opacity:1" fill="#181818" d="M 188.5,245.5 C 237.833,245.5 287.167,245.5 336.5,245.5C 336.5,246.167 336.833,246.5 337.5,246.5C 319.674,247.497 301.674,247.83 283.5,247.5C 253.5,247.5 223.5,247.5 193.5,247.5C 193.025,250.313 194.025,252.313 196.5,253.5C 198.262,254.262 199.262,255.596 199.5,257.5C 200.08,259.749 201.413,261.415 203.5,262.5C 228.328,263.498 253.328,263.831 278.5,263.5C 278.5,263.833 278.5,264.167 278.5,264.5C 252.5,264.5 226.5,264.5 200.5,264.5C 200.5,270.167 200.5,275.833 200.5,281.5C 199.674,276.684 199.174,271.684 199,266.5C 198.015,264.825 197.181,263.158 196.5,261.5C 194.649,258.622 192.982,255.622 191.5,252.5C 190.675,251.614 189.675,251.281 188.5,251.5C 188.473,249.801 187.806,248.467 186.5,247.5C 186.5,246.167 187.167,245.5 188.5,245.5 Z"/></g>
<g><path style="opacity:1" fill="#3a3a3a" d="M 419.5,239.5 C 419.5,239.833 419.5,240.167 419.5,240.5C 418.022,240.238 416.689,240.571 415.5,241.5C 417.544,242.065 419.21,243.065 420.5,244.5C 412.869,243.436 405.202,243.269 397.5,244C 394.691,245.323 392.025,246.823 389.5,248.5C 391.095,245.74 393.428,243.907 396.5,243C 401.2,242.329 405.866,241.496 410.5,240.5C 410.709,239.914 411.043,239.414 411.5,239C 410.167,238.833 408.833,238.667 407.5,238.5C 403.529,239.38 399.529,240.047 395.5,240.5C 403.24,236.866 411.24,236.532 419.5,239.5 Z"/></g>
<g><path style="opacity:1" fill="#646464" d="M 423.5,240.5 C 425.852,241.566 428.186,242.733 430.5,244C 440.849,244.168 451.183,244.668 461.5,245.5C 461.863,246.183 462.196,246.85 462.5,247.5C 453.161,247.666 443.827,247.5 434.5,247C 433.473,246.487 432.473,245.987 431.5,245.5C 428.329,244.564 425.662,242.897 423.5,240.5 Z"/></g>
<g><path style="opacity:1" fill="#98251e" d="M 521.5,242.5 C 521.672,243.492 521.338,244.158 520.5,244.5C 518.167,245.167 515.833,245.833 513.5,246.5C 511.379,246.325 509.379,246.659 507.5,247.5C 506.504,247.586 505.671,247.252 505,246.5C 504.501,242.514 504.334,238.514 504.5,234.5C 504.5,232.833 504.5,231.167 504.5,229.5C 510.075,228.548 515.741,228.214 521.5,228.5C 521.5,233.167 521.5,237.833 521.5,242.5 Z"/></g>
<g><path style="opacity:1" fill="#d63126" d="M 520.5,244.5 C 515.493,244.751 510.493,245.084 505.5,245.5C 505.179,240.305 505.513,235.305 506.5,230.5C 510.97,229.514 515.637,229.181 520.5,229.5C 520.5,234.5 520.5,239.5 520.5,244.5 Z"/></g>
<g><path style="opacity:1" fill="#f92f21" d="M 506.5,230.5 C 510.969,230.458 515.302,231.125 519.5,232.5C 519.789,236.106 519.456,239.606 518.5,243C 514.514,243.499 510.514,243.666 506.5,243.5C 506.5,239.167 506.5,234.833 506.5,230.5 Z"/></g>
<g><path style="opacity:0.945" fill="#3a1f1d" d="M 521.5,242.5 C 521.833,242.5 522.167,242.5 522.5,242.5C 522.608,244.514 521.942,246.18 520.5,247.5C 517.941,247.802 515.607,247.468 513.5,246.5C 515.833,245.833 518.167,245.167 520.5,244.5C 521.338,244.158 521.672,243.492 521.5,242.5 Z"/></g>
<g><path style="opacity:1" fill="#717171" d="M 159.5,242.5 C 167.418,241.944 175.085,242.944 182.5,245.5C 183.476,246.815 184.476,248.148 185.5,249.5C 185.291,250.086 184.957,250.586 184.5,251C 181.983,251.257 179.65,250.59 177.5,249C 171.167,248.333 164.833,248.333 158.5,249C 155.187,250.968 151.854,252.968 148.5,255C 147.663,256.011 147.33,257.178 147.5,258.5C 145.833,258.5 144.167,258.5 142.5,258.5C 142.343,257.127 142.51,255.793 143,254.5C 144.707,252.963 146.207,251.296 147.5,249.5C 147.5,248.833 147.833,248.5 148.5,248.5C 152.211,246.493 155.878,244.493 159.5,242.5 Z"/></g>
<g><path style="opacity:1" fill="#3b3b3b" d="M 336.5,245.5 C 353.167,245.5 369.833,245.5 386.5,245.5C 384.981,246.41 383.315,247.243 381.5,248C 380.748,248.671 380.414,249.504 380.5,250.5C 352.402,249.841 324.402,249.175 296.5,248.5C 320.502,248.667 344.502,248.5 368.5,248C 368.833,247.667 369.167,247.333 369.5,247C 358.839,246.5 348.172,246.333 337.5,246.5C 336.833,246.5 336.5,246.167 336.5,245.5 Z"/></g>
<g><path style="opacity:0.996" fill="#696a6a" d="M 63.5,213.5 C 63.8333,213.5 64.1667,213.5 64.5,213.5C 63.2057,217.934 63.2057,222.267 64.5,226.5C 65.1667,226.833 65.8333,227.167 66.5,227.5C 67.8233,230.806 68.8233,234.139 69.5,237.5C 69.5,239.167 69.5,240.833 69.5,242.5C 68.596,243.209 68.2627,244.209 68.5,245.5C 70.5,245.5 72.5,245.5 74.5,245.5C 76.9893,245.241 78.656,246.241 79.5,248.5C 79.1667,248.5 78.8333,248.5 78.5,248.5C 74.3691,245.689 70.3691,245.856 66.5,249C 65.1834,251.937 65.1834,254.77 66.5,257.5C 67.5,262.167 68.5,266.833 69.5,271.5C 68.8485,270.909 68.1818,270.243 67.5,269.5C 66.8281,270.949 66.1614,272.282 65.5,273.5C 62.7525,269.998 61.0858,265.998 60.5,261.5C 58.8669,254.379 61.0335,248.379 67,243.5C 67.8275,239.129 67.6609,234.795 66.5,230.5C 64.4733,229.307 62.9733,227.64 62,225.5C 61.3333,222.167 61.3333,218.833 62,215.5C 62.2784,214.584 62.7784,213.918 63.5,213.5 Z"/></g>
<g><path style="opacity:1" fill="#3b3b3b" d="M 283.5,247.5 C 283.5,247.833 283.5,248.167 283.5,248.5C 270.833,248.5 258.167,248.5 245.5,248.5C 228.487,248.167 211.487,248.501 194.5,249.5C 194.624,250.107 194.957,250.44 195.5,250.5C 196.11,251.391 196.443,252.391 196.5,253.5C 194.025,252.313 193.025,250.313 193.5,247.5C 223.5,247.5 253.5,247.5 283.5,247.5 Z"/></g>
<g><path style="opacity:1" fill="#282828" d="M 337.5,246.5 C 348.172,246.333 358.839,246.5 369.5,247C 369.167,247.333 368.833,247.667 368.5,248C 344.502,248.5 320.502,248.667 296.5,248.5C 292.167,248.5 287.833,248.5 283.5,248.5C 283.5,248.167 283.5,247.833 283.5,247.5C 301.674,247.83 319.674,247.497 337.5,246.5 Z"/></g>
<g><path style="opacity:1" fill="#3e3e3e" d="M 431.5,245.5 C 432.473,245.987 433.473,246.487 434.5,247C 443.827,247.5 453.161,247.666 462.5,247.5C 462.5,247.833 462.5,248.167 462.5,248.5C 452.494,248.666 442.494,248.5 432.5,248C 431.748,247.329 431.414,246.496 431.5,245.5 Z"/></g>
<g><path style="opacity:0.169" fill="#765b58" d="M 513.5,246.5 C 515.607,247.468 517.941,247.802 520.5,247.5C 519.791,248.404 518.791,248.737 517.5,248.5C 514.43,248.368 511.43,248.701 508.5,249.5C 507.833,249.5 507.5,249.167 507.5,248.5C 507.5,248.167 507.5,247.833 507.5,247.5C 509.379,246.659 511.379,246.325 513.5,246.5 Z"/></g>
<g><path style="opacity:0.383" fill="#000000" d="M 517.5,248.5 C 524.363,279.118 513.196,299.785 484,310.5C 454.944,319.247 425.277,324.58 395,326.5C 336.436,324.718 277.936,321.718 219.5,317.5C 202.437,318.399 185.437,320.065 168.5,322.5C 159.053,321.244 149.72,319.411 140.5,317C 124.352,312.062 108.352,306.729 92.5,301C 83.6202,295.749 78.9535,287.916 78.5,277.5C 91.8389,277.212 105.172,276.712 118.5,276C 119.416,275.722 120.082,275.222 120.5,274.5C 120.833,274.5 121.167,274.5 121.5,274.5C 123.104,273.713 123.771,272.38 123.5,270.5C 127.316,270.021 130.65,271.021 133.5,273.5C 133.069,274.293 132.735,275.127 132.5,276C 133.204,279.128 133.704,282.294 134,285.5C 134.333,283.167 134.667,280.833 135,278.5C 133.364,287.27 136.197,294.436 143.5,300C 147.645,303.807 152.478,306.307 158,307.5C 164.179,306.186 170.346,306.186 176.5,307.5C 183.126,305.742 188.959,302.408 194,297.5C 194.926,295.308 196.093,293.308 197.5,291.5C 197.5,289.167 197.5,286.833 197.5,284.5C 198.5,284.5 199.5,284.5 200.5,284.5C 200.5,283.5 200.5,282.5 200.5,281.5C 200.5,275.833 200.5,270.167 200.5,264.5C 226.5,264.5 252.5,264.5 278.5,264.5C 278.833,264.5 279.167,264.5 279.5,264.5C 269.214,266.314 258.547,267.148 247.5,267C 271.173,267.276 294.839,267.776 318.5,268.5C 322.018,268.498 325.351,268.165 328.5,267.5C 343.487,266.716 358.487,266.383 373.5,266.5C 374.222,266.082 374.722,265.416 375,264.5C 375.17,270.528 375.67,276.528 376.5,282.5C 377.086,282.709 377.586,283.043 378,283.5C 378.578,290.738 381.411,296.738 386.5,301.5C 388.711,301.898 391.044,302.064 393.5,302C 394.759,302.923 396.092,303.757 397.5,304.5C 396.624,305.251 395.624,305.751 394.5,306C 396.218,306.346 397.885,306.846 399.5,307.5C 407.189,306.772 414.856,306.439 422.5,306.5C 423.922,306.291 425.255,305.791 426.5,305C 432.6,299.901 437.6,293.901 441.5,287C 439.808,285.599 439.141,283.766 439.5,281.5C 439.5,281.167 439.5,280.833 439.5,280.5C 440.222,280.082 440.722,279.416 441,278.5C 441.333,280.5 441.667,282.5 442,284.5C 443.895,279.675 444.728,274.675 444.5,269.5C 443.167,269.5 441.833,269.5 440.5,269.5C 440.173,267.512 439.84,265.512 439.5,263.5C 439.64,261.97 440.307,260.97 441.5,260.5C 441.869,262.441 442.536,264.275 443.5,266C 448.519,266.411 453.519,266.911 458.5,267.5C 458.5,263.833 458.5,260.167 458.5,256.5C 459.317,258.969 459.817,261.635 460,264.5C 460.629,260.129 460.463,255.796 459.5,251.5C 462.973,251.576 466.306,252.242 469.5,253.5C 473.155,252.925 476.155,253.925 478.5,256.5C 478.577,257.75 479.244,258.583 480.5,259C 483.666,260.557 487,261.39 490.5,261.5C 490.5,262.5 490.5,263.5 490.5,264.5C 491.833,264.5 493.167,264.5 494.5,264.5C 494.389,265.117 494.056,265.617 493.5,266C 495.805,269.032 498.638,269.865 502,268.5C 502.333,263.167 502.667,257.833 503,252.5C 504.719,251.131 506.552,250.131 508.5,249.5C 511.43,248.701 514.43,248.368 517.5,248.5 Z"/></g>
<g><path style="opacity:1" fill="#163348" d="M 74.5,243.5 C 76.5,243.5 78.5,243.5 80.5,243.5C 81.2905,244.401 82.2905,245.068 83.5,245.5C 83.5,251.5 83.5,257.5 83.5,263.5C 82.8333,263.5 82.1667,263.5 81.5,263.5C 81.8205,258.305 81.4872,253.305 80.5,248.5C 80.1667,248.5 79.8333,248.5 79.5,248.5C 78.656,246.241 76.9893,245.241 74.5,245.5C 74.5,244.833 74.5,244.167 74.5,243.5 Z"/></g>
<g><path style="opacity:1" fill="#8f8f8f" d="M 378.5,251.5 C 378.5,252.167 378.5,252.833 378.5,253.5C 377.833,253.5 377.5,253.833 377.5,254.5C 375.824,255.183 375.157,256.517 375.5,258.5C 317.166,258.259 258.833,257.926 200.5,257.5C 200.167,257.5 199.833,257.5 199.5,257.5C 199.262,255.596 198.262,254.262 196.5,253.5C 196.443,252.391 196.11,251.391 195.5,250.5C 203.493,249.834 211.66,249.5 220,249.5C 272.815,251.256 325.649,251.922 378.5,251.5 Z"/></g>
<g><path style="opacity:1" fill="#606060" d="M 245.5,248.5 C 258.167,248.5 270.833,248.5 283.5,248.5C 287.833,248.5 292.167,248.5 296.5,248.5C 324.402,249.175 352.402,249.841 380.5,250.5C 380.715,252.179 380.048,253.179 378.5,253.5C 378.5,252.833 378.5,252.167 378.5,251.5C 334.159,250.89 289.825,249.89 245.5,248.5 Z"/></g>
<g><path style="opacity:1" fill="#434343" d="M 420.5,244.5 C 421.873,244.343 423.207,244.51 424.5,245C 428.775,248.697 432.608,252.863 436,257.5C 438.966,264.846 440.133,272.513 439.5,280.5C 439.5,280.833 439.5,281.167 439.5,281.5C 438.129,283.936 437.129,286.603 436.5,289.5C 434.956,289.297 433.622,288.63 432.5,287.5C 424.609,296.807 414.609,300.64 402.5,299C 398.991,297.241 395.325,296.074 391.5,295.5C 391.762,296.978 391.429,298.311 390.5,299.5C 389.735,298.388 388.735,297.721 387.5,297.5C 385.437,294.202 382.937,291.202 380,288.5C 379.503,286.19 379.337,283.857 379.5,281.5C 378.5,281.5 377.5,281.5 376.5,281.5C 376.334,275.824 376.501,270.157 377,264.5C 379.46,261.875 381.294,258.875 382.5,255.5C 384.186,254.143 385.852,252.81 387.5,251.5C 386.741,253.436 385.741,255.269 384.5,257C 384.833,257.5 385.167,258 385.5,258.5C 389.298,254.098 393.964,250.931 399.5,249C 408.362,248.042 417.028,248.542 425.5,250.5C 425.649,249.448 425.483,248.448 425,247.5C 423.348,246.601 421.848,245.601 420.5,244.5 Z"/></g>
<g><path style="opacity:0.888" fill="#1c1c1c" d="M 419.5,240.5 C 420.833,240.5 422.167,240.5 423.5,240.5C 425.662,242.897 428.329,244.564 431.5,245.5C 431.414,246.496 431.748,247.329 432.5,248C 442.494,248.5 452.494,248.666 462.5,248.5C 464.833,249.167 467.167,249.833 469.5,250.5C 469.5,251.5 469.5,252.5 469.5,253.5C 466.306,252.242 462.973,251.576 459.5,251.5C 460.463,255.796 460.629,260.129 460,264.5C 459.817,261.635 459.317,258.969 458.5,256.5C 458.5,254.5 458.5,252.5 458.5,250.5C 451.5,250.5 444.5,250.5 437.5,250.5C 438.835,253.852 440.169,257.185 441.5,260.5C 440.307,260.97 439.64,261.97 439.5,263.5C 439.84,265.512 440.173,267.512 440.5,269.5C 441.833,269.5 443.167,269.5 444.5,269.5C 444.728,274.675 443.895,279.675 442,284.5C 441.667,282.5 441.333,280.5 441,278.5C 440.722,279.416 440.222,280.082 439.5,280.5C 440.133,272.513 438.966,264.846 436,257.5C 432.608,252.863 428.775,248.697 424.5,245C 423.207,244.51 421.873,244.343 420.5,244.5C 419.21,243.065 417.544,242.065 415.5,241.5C 416.689,240.571 418.022,240.238 419.5,240.5 Z"/></g>
<g><path style="opacity:0.343" fill="#2c2727" d="M 500.5,227.5 C 501.833,227.5 503.167,227.5 504.5,227.5C 504.5,228.167 504.5,228.833 504.5,229.5C 503.182,232.258 502.515,235.424 502.5,239C 502.515,242.576 503.182,245.742 504.5,248.5C 505.5,248.5 506.5,248.5 507.5,248.5C 507.5,249.167 507.833,249.5 508.5,249.5C 506.552,250.131 504.719,251.131 503,252.5C 502.667,257.833 502.333,263.167 502,268.5C 498.638,269.865 495.805,269.032 493.5,266C 494.056,265.617 494.389,265.117 494.5,264.5C 495.93,264.421 497.264,264.754 498.5,265.5C 498.833,264.333 499.167,263.167 499.5,262C 500.419,251.19 500.752,240.356 500.5,229.5C 500.5,228.833 500.5,228.167 500.5,227.5 Z"/></g>
<g><path style="opacity:1" fill="#aaaaaa" d="M 78.5,248.5 C 78.8306,255.863 78.4973,263.197 77.5,270.5C 75.0514,270.02 72.8847,269.02 71,267.5C 69.747,263.999 68.247,260.665 66.5,257.5C 65.1834,254.77 65.1834,251.937 66.5,249C 70.3691,245.856 74.3691,245.689 78.5,248.5 Z"/></g>
<g><path style="opacity:1" fill="#7e7e7e" d="M 245.5,248.5 C 289.825,249.89 334.159,250.89 378.5,251.5C 325.649,251.922 272.815,251.256 220,249.5C 211.66,249.5 203.493,249.834 195.5,250.5C 194.957,250.44 194.624,250.107 194.5,249.5C 211.487,248.501 228.487,248.167 245.5,248.5 Z"/></g>
<g><path style="opacity:1" fill="#858584" d="M 136.5,248.5 C 137.586,248.62 138.253,249.287 138.5,250.5C 137.813,252.177 137.146,253.844 136.5,255.5C 135.414,255.38 134.747,254.713 134.5,253.5C 135.187,251.823 135.854,250.156 136.5,248.5 Z"/></g>
<g><path style="opacity:1" fill="#4b4b4b" d="M 458.5,256.5 C 458.167,256.5 457.833,256.5 457.5,256.5C 457.5,254.833 457.5,253.167 457.5,251.5C 453.486,251.334 449.486,251.501 445.5,252C 443.242,254.725 442.909,257.725 444.5,261C 448.821,261.499 453.154,261.666 457.5,261.5C 457.461,262.583 457.127,263.583 456.5,264.5C 452.555,265.491 448.555,265.824 444.5,265.5C 444.727,263.067 443.727,261.401 441.5,260.5C 440.169,257.185 438.835,253.852 437.5,250.5C 444.5,250.5 451.5,250.5 458.5,250.5C 458.5,252.5 458.5,254.5 458.5,256.5 Z"/></g>
<g><path style="opacity:1" fill="#696969" d="M 457.5,256.5 C 457.5,258.167 457.5,259.833 457.5,261.5C 453.154,261.666 448.821,261.499 444.5,261C 442.909,257.725 443.242,254.725 445.5,252C 449.486,251.501 453.486,251.334 457.5,251.5C 457.5,253.167 457.5,254.833 457.5,256.5 Z"/></g>
<g><path style="opacity:1" fill="#1c1c1c" d="M 389.5,248.5 C 388.094,248.973 387.427,249.973 387.5,251.5C 385.852,252.81 384.186,254.143 382.5,255.5C 381.294,258.875 379.46,261.875 377,264.5C 376.501,270.157 376.334,275.824 376.5,281.5C 377.5,281.5 378.5,281.5 379.5,281.5C 379.337,283.857 379.503,286.19 380,288.5C 382.937,291.202 385.437,294.202 387.5,297.5C 388.826,299.195 388.493,300.528 386.5,301.5C 381.411,296.738 378.578,290.738 378,283.5C 377.586,283.043 377.086,282.709 376.5,282.5C 375.67,276.528 375.17,270.528 375,264.5C 374.722,265.416 374.222,266.082 373.5,266.5C 373.5,265.5 373.5,264.5 373.5,263.5C 374.167,262.5 374.833,261.5 375.5,260.5C 376.167,258.5 376.833,256.5 377.5,254.5C 377.5,253.833 377.833,253.5 378.5,253.5C 380.048,253.179 380.715,252.179 380.5,250.5C 380.414,249.504 380.748,248.671 381.5,248C 383.315,247.243 384.981,246.41 386.5,245.5C 388.167,244.5 389.5,243.167 390.5,241.5C 392.117,240.962 393.784,240.629 395.5,240.5C 399.529,240.047 403.529,239.38 407.5,238.5C 408.833,238.667 410.167,238.833 411.5,239C 411.043,239.414 410.709,239.914 410.5,240.5C 405.866,241.496 401.2,242.329 396.5,243C 393.428,243.907 391.095,245.74 389.5,248.5 Z"/></g>
<g><path style="opacity:1" fill="#424242" d="M 182.5,245.5 C 184.062,245.733 185.395,246.4 186.5,247.5C 187.806,248.467 188.473,249.801 188.5,251.5C 189.675,251.281 190.675,251.614 191.5,252.5C 192.982,255.622 194.649,258.622 196.5,261.5C 198.316,267.297 198.816,273.297 198,279.5C 197.512,284.175 195.679,288.175 192.5,291.5C 191.571,290.311 191.238,288.978 191.5,287.5C 190.325,287.281 189.325,287.614 188.5,288.5C 180.398,298.199 170.065,301.533 157.5,298.5C 154.202,298.464 150.869,298.464 147.5,298.5C 140.093,291.954 136.426,283.621 136.5,273.5C 135.79,264.118 138.79,256.285 145.5,250C 146.094,249.536 146.761,249.369 147.5,249.5C 146.207,251.296 144.707,252.963 143,254.5C 142.51,255.793 142.343,257.127 142.5,258.5C 144.167,258.5 145.833,258.5 147.5,258.5C 147.33,257.178 147.663,256.011 148.5,255C 151.854,252.968 155.187,250.968 158.5,249C 164.833,248.333 171.167,248.333 177.5,249C 179.65,250.59 181.983,251.257 184.5,251C 184.957,250.586 185.291,250.086 185.5,249.5C 184.476,248.148 183.476,246.815 182.5,245.5 Z"/></g>
<g><path style="opacity:1" fill="#3eb4e7" d="M 83.5,229.5 C 83.8333,229.5 84.1667,229.5 84.5,229.5C 84.7804,232.388 83.4471,233.888 80.5,234C 80.8333,234.333 81.1667,234.667 81.5,235C 79.8659,235.494 78.1992,235.66 76.5,235.5C 76.5,236.833 76.5,238.167 76.5,239.5C 82.2922,239.409 86.6255,241.743 89.5,246.5C 88.8333,247.5 88.1667,248.5 87.5,249.5C 89.4386,251.122 89.772,252.956 88.5,255C 94.7039,255.227 100.871,255.727 107,256.5C 108.826,255.99 108.993,255.156 107.5,254C 109.713,253.374 111.88,253.541 114,254.5C 116.235,252.629 118.735,251.129 121.5,250C 122.56,246.386 124.393,243.22 127,240.5C 127.333,238.833 127.667,237.167 128,235.5C 130.018,234.777 131.852,233.777 133.5,232.5C 128.27,241.174 122.937,249.674 117.5,258C 106.505,258.5 95.505,258.667 84.5,258.5C 84.8182,253.968 84.4849,249.634 83.5,245.5C 82.2905,245.068 81.2905,244.401 80.5,243.5C 74.0023,242.983 71.0023,239.316 71.5,232.5C 75.1817,232.665 78.8484,232.499 82.5,232C 83.2524,231.329 83.5858,230.496 83.5,229.5 Z"/></g>
<g><path style="opacity:1" fill="#535454" d="M 136.5,248.5 C 135.854,250.156 135.187,251.823 134.5,253.5C 134.747,254.713 135.414,255.38 136.5,255.5C 135.075,256.922 134.075,258.589 133.5,260.5C 130.431,255.774 131.431,251.774 136.5,248.5 Z"/></g>
<g><path style="opacity:1" fill="#686868" d="M 202.5,258.5 C 259.491,259.797 316.491,260.464 373.5,260.5C 373.5,261.167 373.167,261.5 372.5,261.5C 334.832,261.667 297.165,261.5 259.5,261C 240.312,260.831 221.312,259.998 202.5,258.5 Z"/></g>
<g><path style="opacity:1" fill="#797979" d="M 377.5,254.5 C 376.833,256.5 376.167,258.5 375.5,260.5C 374.833,260.5 374.167,260.5 373.5,260.5C 316.491,260.464 259.491,259.797 202.5,258.5C 201.508,258.672 200.842,258.338 200.5,257.5C 258.833,257.926 317.166,258.259 375.5,258.5C 375.157,256.517 375.824,255.183 377.5,254.5 Z"/></g>
<g><path style="opacity:1" fill="#303030" d="M 60.5,261.5 C 60.1924,259.076 60.5258,256.743 61.5,254.5C 63.0691,253.286 63.9024,251.619 64,249.5C 64.4099,254.509 64.9099,259.509 65.5,264.5C 65.1667,265.833 64.8333,267.167 64.5,268.5C 63.7078,266.535 63.0412,264.535 62.5,262.5C 62.0431,261.702 61.3764,261.369 60.5,261.5 Z"/></g>
<g><path style="opacity:1" fill="#545454" d="M 199.5,257.5 C 199.833,257.5 200.167,257.5 200.5,257.5C 200.842,258.338 201.508,258.672 202.5,258.5C 221.312,259.998 240.312,260.831 259.5,261C 297.165,261.5 334.832,261.667 372.5,261.5C 316.336,262.499 260.002,262.832 203.5,262.5C 201.413,261.415 200.08,259.749 199.5,257.5 Z"/></g>
<g><path style="opacity:1" fill="#414141" d="M 373.5,260.5 C 374.167,260.5 374.833,260.5 375.5,260.5C 374.833,261.5 374.167,262.5 373.5,263.5C 369.756,264.761 365.756,265.428 361.5,265.5C 333.856,263.898 306.19,263.231 278.5,263.5C 253.328,263.831 228.328,263.498 203.5,262.5C 260.002,262.832 316.336,262.499 372.5,261.5C 373.167,261.5 373.5,261.167 373.5,260.5 Z"/></g>
<g><path style="opacity:1" fill="#2c2c2c" d="M 457.5,256.5 C 457.833,256.5 458.167,256.5 458.5,256.5C 458.5,260.167 458.5,263.833 458.5,267.5C 453.519,266.911 448.519,266.411 443.5,266C 442.536,264.275 441.869,262.441 441.5,260.5C 443.727,261.401 444.727,263.067 444.5,265.5C 448.555,265.824 452.555,265.491 456.5,264.5C 457.127,263.583 457.461,262.583 457.5,261.5C 457.5,259.833 457.5,258.167 457.5,256.5 Z"/></g>
<g><path style="opacity:1" fill="#196a8a" d="M 83.5,245.5 C 84.4849,249.634 84.8182,253.968 84.5,258.5C 84.5,259.833 84.5,261.167 84.5,262.5C 97.1548,263.192 109.821,263.525 122.5,263.5C 122.5,264.167 122.5,264.833 122.5,265.5C 109.252,266.118 96.2523,265.452 83.5,263.5C 83.5,257.5 83.5,251.5 83.5,245.5 Z"/></g>
<g><path style="opacity:0.79" fill="#3f3f3f" d="M 478.5,256.5 C 482.911,257.693 487.244,259.193 491.5,261C 492.71,262.039 493.71,263.206 494.5,264.5C 493.167,264.5 491.833,264.5 490.5,264.5C 490.5,263.5 490.5,262.5 490.5,261.5C 487,261.39 483.666,260.557 480.5,259C 479.244,258.583 478.577,257.75 478.5,256.5 Z"/></g>
<g><path style="opacity:1" fill="#818181" d="M 175.5,260.5 C 178.167,261.167 179.833,262.833 180.5,265.5C 182.087,269.023 182.587,272.69 182,276.5C 181.072,279.035 179.238,280.035 176.5,279.5C 176.374,281.2 175.707,282.7 174.5,284C 174.743,284.902 175.077,285.735 175.5,286.5C 168.843,285.783 162.177,285.116 155.5,284.5C 153.654,282.97 152.654,280.97 152.5,278.5C 151.802,273.283 152.802,268.616 155.5,264.5C 155.47,265.497 155.97,266.164 157,266.5C 160.015,264.268 163.348,262.601 167,261.5C 169.761,262.418 172.594,263.084 175.5,263.5C 175.5,262.5 175.5,261.5 175.5,260.5 Z"/></g>
<g><path style="opacity:0.996" fill="#212121" d="M 279.5,264.5 C 291.851,264.168 304.185,264.501 316.5,265.5C 315.975,266.192 315.308,266.692 314.5,267C 319.155,267.499 323.821,267.666 328.5,267.5C 325.351,268.165 322.018,268.498 318.5,268.5C 294.839,267.776 271.173,267.276 247.5,267C 258.547,267.148 269.214,266.314 279.5,264.5 Z"/></g>
<g><path style="opacity:0.999" fill="#2e2e2e" d="M 278.5,264.5 C 278.5,264.167 278.5,263.833 278.5,263.5C 306.19,263.231 333.856,263.898 361.5,265.5C 365.756,265.428 369.756,264.761 373.5,263.5C 373.5,264.5 373.5,265.5 373.5,266.5C 358.487,266.383 343.487,266.716 328.5,267.5C 323.821,267.666 319.155,267.499 314.5,267C 315.308,266.692 315.975,266.192 316.5,265.5C 304.185,264.501 291.851,264.168 279.5,264.5C 279.167,264.5 278.833,264.5 278.5,264.5 Z"/></g>
<g><path style="opacity:1" fill="#46484a" d="M 80.5,248.5 C 81.4872,253.305 81.8205,258.305 81.5,263.5C 81.5,265.167 81.5,266.833 81.5,268.5C 94.6774,268.171 107.677,268.505 120.5,269.5C 107.167,269.5 93.8333,269.5 80.5,269.5C 80.5,262.5 80.5,255.5 80.5,248.5 Z"/></g>
<g><path style="opacity:1" fill="#858585" d="M 78.5,248.5 C 78.8333,248.5 79.1667,248.5 79.5,248.5C 79.8333,248.5 80.1667,248.5 80.5,248.5C 80.5,255.5 80.5,262.5 80.5,269.5C 93.8333,269.5 107.167,269.5 120.5,269.5C 120.67,270.822 120.337,271.989 119.5,273C 111.167,273.167 102.833,273.333 94.5,273.5C 85.8055,273.498 77.4722,272.831 69.5,271.5C 68.5,266.833 67.5,262.167 66.5,257.5C 68.247,260.665 69.747,263.999 71,267.5C 72.8847,269.02 75.0514,270.02 77.5,270.5C 78.4973,263.197 78.8306,255.863 78.5,248.5 Z"/></g>
<g><path style="opacity:1" fill="#4d4d4d" d="M 69.5,271.5 C 77.4722,272.831 85.8055,273.498 94.5,273.5C 102.833,273.333 111.167,273.167 119.5,273C 120.337,271.989 120.67,270.822 120.5,269.5C 121.451,270.919 121.784,272.585 121.5,274.5C 121.167,274.5 120.833,274.5 120.5,274.5C 103.134,273.848 86.1338,274.514 69.5,276.5C 67.7697,275.974 66.4363,274.974 65.5,273.5C 66.1614,272.282 66.8281,270.949 67.5,269.5C 68.1818,270.243 68.8485,270.909 69.5,271.5 Z"/></g>
<g><path style="opacity:0.968" fill="#2e2e2e" d="M 120.5,274.5 C 120.082,275.222 119.416,275.722 118.5,276C 105.172,276.712 91.8389,277.212 78.5,277.5C 75.4299,277.632 72.4299,277.299 69.5,276.5C 86.1338,274.514 103.134,273.848 120.5,274.5 Z"/></g>
<g><path style="opacity:1" fill="#616161" d="M 180.5,265.5 C 182.262,266.262 183.262,267.596 183.5,269.5C 183.665,272.518 183.498,275.518 183,278.5C 180.699,281.506 178.199,284.172 175.5,286.5C 175.077,285.735 174.743,284.902 174.5,284C 175.707,282.7 176.374,281.2 176.5,279.5C 179.238,280.035 181.072,279.035 182,276.5C 182.587,272.69 182.087,269.023 180.5,265.5 Z"/></g>
<g><path style="opacity:1" fill="#171717" d="M 186.5,267.5 C 186.931,272.032 186.431,276.365 185,280.5C 184.823,276.644 184.323,272.977 183.5,269.5C 183.262,267.596 182.262,266.262 180.5,265.5C 179.833,262.833 178.167,261.167 175.5,260.5C 174.319,258.933 172.653,258.099 170.5,258C 167.076,257.253 163.743,257.42 160.5,258.5C 151.813,262.767 149.146,269.433 152.5,278.5C 152.654,280.97 153.654,282.97 155.5,284.5C 156.899,285.89 158.566,286.89 160.5,287.5C 160.577,288.75 161.244,289.583 162.5,290C 165.882,290.176 169.215,290.676 172.5,291.5C 167.284,292.981 162.284,292.647 157.5,290.5C 155.952,290.179 155.285,289.179 155.5,287.5C 154.5,287.5 153.5,287.5 152.5,287.5C 150.449,283.017 148.782,278.35 147.5,273.5C 149.451,258.697 157.784,252.364 172.5,254.5C 175.495,255.664 178.495,256.83 181.5,258C 183.536,261.012 185.203,264.179 186.5,267.5 Z"/></g>
<g><path style="opacity:1" fill="#505050" d="M 160.5,258.5 C 159.833,259.5 159.167,260.5 158.5,261.5C 157.167,262.167 156.167,263.167 155.5,264.5C 152.802,268.616 151.802,273.283 152.5,278.5C 149.146,269.433 151.813,262.767 160.5,258.5 Z"/></g>
<g><path style="opacity:1" fill="#acacac" d="M 175.5,260.5 C 175.5,261.5 175.5,262.5 175.5,263.5C 172.594,263.084 169.761,262.418 167,261.5C 163.348,262.601 160.015,264.268 157,266.5C 155.97,266.164 155.47,265.497 155.5,264.5C 156.167,263.167 157.167,262.167 158.5,261.5C 163.971,259.24 169.638,258.907 175.5,260.5 Z"/></g>
<g><path style="opacity:1" fill="#727272" d="M 175.5,260.5 C 169.638,258.907 163.971,259.24 158.5,261.5C 159.167,260.5 159.833,259.5 160.5,258.5C 163.743,257.42 167.076,257.253 170.5,258C 172.653,258.099 174.319,258.933 175.5,260.5 Z"/></g>
<g><path style="opacity:1" fill="#606060" d="M 155.5,284.5 C 162.177,285.116 168.843,285.783 175.5,286.5C 170.841,290.035 165.841,290.368 160.5,287.5C 158.566,286.89 156.899,285.89 155.5,284.5 Z"/></g>
<g><path style="opacity:1" fill="#1d1d1d" d="M 404.5,253.5 C 415.499,252.914 423.333,257.581 428,267.5C 428.874,287.457 419.374,296.124 399.5,293.5C 395.877,289.028 392.377,284.361 389,279.5C 386.776,266.263 391.943,257.597 404.5,253.5 Z"/></g>
<g><path style="opacity:1" fill="#5d5d5d" d="M 419.5,261.5 C 425.673,268.638 426.173,276.305 421,284.5C 412.687,291.101 404.52,291.101 396.5,284.5C 402.81,285.752 409.143,285.752 415.5,284.5C 416.473,280.852 418.807,279.186 422.5,279.5C 422.792,273.255 421.792,267.255 419.5,261.5 Z"/></g>
<g><path style="opacity:1" fill="#545454" d="M 396.5,263.5 C 393.497,268.523 392.83,273.857 394.5,279.5C 392.83,273.857 393.497,268.523 396.5,263.5 Z"/></g>
<g><path style="opacity:1" fill="#818181" d="M 414.5,259.5 C 416.167,260.167 417.833,260.833 419.5,261.5C 421.792,267.255 422.792,273.255 422.5,279.5C 418.807,279.186 416.473,280.852 415.5,284.5C 409.143,285.752 402.81,285.752 396.5,284.5C 395.833,282.833 395.167,281.167 394.5,279.5C 392.83,273.857 393.497,268.523 396.5,263.5C 397.167,263.167 397.833,262.833 398.5,262.5C 398.461,263.583 398.127,264.583 397.5,265.5C 400.297,265.345 402.964,264.179 405.5,262C 408.685,261.265 411.685,261.765 414.5,263.5C 415.167,263.167 415.833,262.833 416.5,262.5C 415.807,261.482 415.141,260.482 414.5,259.5 Z"/></g>
<g><path style="opacity:1" fill="#a5a5a5" d="M 412.5,258.5 C 413.492,258.328 414.158,258.662 414.5,259.5C 415.141,260.482 415.807,261.482 416.5,262.5C 415.833,262.833 415.167,263.167 414.5,263.5C 411.685,261.765 408.685,261.265 405.5,262C 402.964,264.179 400.297,265.345 397.5,265.5C 398.127,264.583 398.461,263.583 398.5,262.5C 398.833,261.833 399.167,261.167 399.5,260.5C 403.631,258.817 407.964,258.15 412.5,258.5 Z"/></g>
<g><path style="opacity:1" fill="#4d4d4d" d="M 412.5,258.5 C 407.964,258.15 403.631,258.817 399.5,260.5C 399.881,259.069 400.881,258.236 402.5,258C 406.027,257.192 409.36,257.359 412.5,258.5 Z"/></g>
<g><path style="opacity:1" fill="#282828" d="M 186.5,267.5 C 187.65,272.316 187.816,277.316 187,282.5C 185.252,284.135 184.085,286.135 183.5,288.5C 181.076,289.423 179.076,290.923 177.5,293C 171.5,293.667 165.5,293.667 159.5,293C 158.619,292.292 157.953,291.458 157.5,290.5C 162.284,292.647 167.284,292.981 172.5,291.5C 169.215,290.676 165.882,290.176 162.5,290C 161.244,289.583 160.577,288.75 160.5,287.5C 165.841,290.368 170.841,290.035 175.5,286.5C 178.199,284.172 180.699,281.506 183,278.5C 183.498,275.518 183.665,272.518 183.5,269.5C 184.323,272.977 184.823,276.644 185,280.5C 186.431,276.365 186.931,272.032 186.5,267.5 Z"/></g>
<g><path style="opacity:1" fill="#2d2d2d" d="M 196.5,261.5 C 197.181,263.158 198.015,264.825 199,266.5C 199.174,271.684 199.674,276.684 200.5,281.5C 200.5,282.5 200.5,283.5 200.5,284.5C 199.5,284.5 198.5,284.5 197.5,284.5C 197.5,286.833 197.5,289.167 197.5,291.5C 196.85,291.196 196.183,290.863 195.5,290.5C 191.429,295.363 186.762,299.53 181.5,303C 174.404,305.342 167.071,306.008 159.5,305C 157.911,303.255 155.911,302.088 153.5,301.5C 155.332,300.943 156.665,299.943 157.5,298.5C 170.065,301.533 180.398,298.199 188.5,288.5C 189.325,287.614 190.325,287.281 191.5,287.5C 191.238,288.978 191.571,290.311 192.5,291.5C 195.679,288.175 197.512,284.175 198,279.5C 198.816,273.297 198.316,267.297 196.5,261.5 Z"/></g>
<g><path style="opacity:1" fill="#2c2c2c" d="M 436.5,289.5 C 434.314,291.88 432.647,294.546 431.5,297.5C 426.833,299.835 422.166,302.168 417.5,304.5C 419.291,305.17 420.958,305.837 422.5,306.5C 414.856,306.439 407.189,306.772 399.5,307.5C 397.885,306.846 396.218,306.346 394.5,306C 395.624,305.751 396.624,305.251 397.5,304.5C 396.092,303.757 394.759,302.923 393.5,302C 391.044,302.064 388.711,301.898 386.5,301.5C 388.493,300.528 388.826,299.195 387.5,297.5C 388.735,297.721 389.735,298.388 390.5,299.5C 391.429,298.311 391.762,296.978 391.5,295.5C 395.325,296.074 398.991,297.241 402.5,299C 414.609,300.64 424.609,296.807 432.5,287.5C 433.622,288.63 434.956,289.297 436.5,289.5 Z"/></g>
<g><path style="opacity:0.924" fill="#1f1f1f" d="M 439.5,281.5 C 439.141,283.766 439.808,285.599 441.5,287C 437.6,293.901 432.6,299.901 426.5,305C 425.255,305.791 423.922,306.291 422.5,306.5C 420.958,305.837 419.291,305.17 417.5,304.5C 422.166,302.168 426.833,299.835 431.5,297.5C 432.647,294.546 434.314,291.88 436.5,289.5C 437.129,286.603 438.129,283.936 439.5,281.5 Z"/></g>
<g><path style="opacity:0.956" fill="#1a1b1c" d="M 159.5,242.5 C 154.985,243 151.318,245 148.5,248.5C 147.833,248.5 147.5,248.833 147.5,249.5C 146.761,249.369 146.094,249.536 145.5,250C 138.79,256.285 135.79,264.118 136.5,273.5C 136.426,283.621 140.093,291.954 147.5,298.5C 150.869,298.464 154.202,298.464 157.5,298.5C 156.665,299.943 155.332,300.943 153.5,301.5C 155.911,302.088 157.911,303.255 159.5,305C 167.071,306.008 174.404,305.342 181.5,303C 186.762,299.53 191.429,295.363 195.5,290.5C 196.183,290.863 196.85,291.196 197.5,291.5C 196.093,293.308 194.926,295.308 194,297.5C 188.959,302.408 183.126,305.742 176.5,307.5C 170.346,306.186 164.179,306.186 158,307.5C 152.478,306.307 147.645,303.807 143.5,300C 136.197,294.436 133.364,287.27 135,278.5C 134.667,280.833 134.333,283.167 134,285.5C 133.704,282.294 133.204,279.128 132.5,276C 132.735,275.127 133.069,274.293 133.5,273.5C 130.65,271.021 127.316,270.021 123.5,270.5C 123.771,272.38 123.104,273.713 121.5,274.5C 121.784,272.585 121.451,270.919 120.5,269.5C 107.677,268.505 94.6774,268.171 81.5,268.5C 81.5,266.833 81.5,265.167 81.5,263.5C 82.1667,263.5 82.8333,263.5 83.5,263.5C 83.5,264.5 83.5,265.5 83.5,266.5C 96.6774,266.829 109.677,266.495 122.5,265.5C 122.5,264.833 122.5,264.167 122.5,263.5C 124.167,262.5 125.5,261.167 126.5,259.5C 128.156,260.146 129.823,260.813 131.5,261.5C 132.416,261.457 133.083,261.124 133.5,260.5C 134.075,258.589 135.075,256.922 136.5,255.5C 140.25,253.269 141.917,249.936 141.5,245.5C 146.325,245.644 150.325,243.977 153.5,240.5C 154.167,240.5 154.833,240.5 155.5,240.5C 159.157,239.838 162.824,239.171 166.5,238.5C 167.833,238.833 169.167,239.167 170.5,239.5C 166.737,240.615 163.07,241.615 159.5,242.5 Z"/></g>
<g><path style="opacity:0.997" fill="#424242" d="M 126.5,264.5 C 128.833,264.5 131.167,264.5 133.5,264.5C 133.5,266.167 133.5,267.833 133.5,269.5C 131.473,269.662 129.473,269.495 127.5,269C 126.62,267.644 126.286,266.144 126.5,264.5 Z"/></g>
<g><path style="opacity:1" fill="#164153" d="M 83.5,263.5 C 96.2523,265.452 109.252,266.118 122.5,265.5C 109.677,266.495 96.6774,266.829 83.5,266.5C 83.5,265.5 83.5,264.5 83.5,263.5 Z"/></g>
</svg>
